<?xml version="1.0" encoding="utf-8"?>
<!-- Generator: Adobe Illustrator 27.6.0, SVG Export Plug-In . SVG Version: 6.00 Build 0)  -->
<svg version="1.1" baseProfile="basic" id="Layer_1"
	 xmlns="http://www.w3.org/2000/svg" xmlns:xlink="http://www.w3.org/1999/xlink" x="0px" y="0px" viewBox="0 0 348 267"
	 xml:space="preserve">
<g opacity="0.8">
	<g>
		<path fill="#8893C2" d="M216.7,41.6c-1.7-2.3-3.7-4.2-6.3-5.5c-3.2-1.7-6-0.8-7.9,2.3c-0.9,1.5-1.4,3.1-1.6,4.8
			c-0.3,2-0.4,4.1-0.7,6.2c-0.2,1.8-0.3,3.6-0.7,5.3c-1.2,5-1.8,10.2-2.1,15.3c0,0.5-0.1,0.9-0.2,1.3c-0.5,0-0.8-0.3-1-0.6
			c-3.7-8.1-9.5-14.5-15.9-20.5c-7-6.6-15.1-11.3-23.9-14.9c-5.1-2-10.4-3.1-15.9-3.3c-6-0.2-12-0.7-17.9-1.9
			c-2.8-0.6-5.7-1-8.7-0.9c-3.1,0.1-6.1,0.8-8.8,2.5c-3.2,2-4.5,4.9-4.2,8.6c0.2,2.1,0.9,4,1.9,5.8c1.7,3.2,3.7,6.3,5.8,9.3
			c0.6,0.8,1.1,1.7,1.7,2.8c-2.5-0.5-4.7-2.5-7.4-1.3c-0.8,0.8-0.8,1.8-0.6,2.9c1.7,8.4,3.8,16.6,6.9,24.6c1.9,4.8,4.7,9.2,8.3,12.9
			c1.6,1.6,3,3.3,4.5,5.1c-1.2,0.1-2.1-0.4-3-0.7c-9.4-3.2-19-5.2-29-5c-15.6,0.3-29.6,5.2-42.5,13.7c-2.6,1.7-4.7,4-6.9,6.2
			c-3.1,3.1-4,8-1.9,12.5c0.9,2,2.1,3.8,3.5,5.4c3.4,4,5.8,8.4,7,13.6c0.4,1.5,1,3,1.3,4.6c1.5,6.5,5.3,11.6,10.4,15.6
			c2.7,2.2,5.3,4.4,8.1,6.5c8.5,6.3,17.8,10.6,28.2,12.7c5.4,1.1,11,1.5,16.5,1.7c0.6,0,1.3-0.2,2.1,0.4c-1,0.3-1.9,0.6-2.7,0.8
			c-7.9,2.1-15.7,4.2-23.3,7.4c-5,2.1-9.7,4.8-13.5,8.9c-1.1,1.2-2,2.5-2.7,3.9c-2.5,6-0.8,9,3.9,11.8c1.7,1,3.6,1.6,5.5,2
			c5.8,1.3,11.4,2.9,17,4.8c11.3,3.8,22.7,3.3,34.1,0.5c4.1-1,8.1-2.4,12-3.9c0.8-0.3,1.6-0.6,2.3-1.1c2.5-1.7,5.4-2.5,8.3-3
			c12.9-2.4,24.2-8.1,35-15.3c5.6-3.8,11-7.8,15.7-12.7c2.2-2.3,4.1-4.9,5.8-7.5c2.3-3.5,5.6-6,9.2-8c5-2.7,9.9-5.6,14.6-8.9
			c2.5-1.7,4.3-4.1,6.3-6.5c1.6,0.4,2.8,1.5,4.1,2.3c6.3,4.3,12.3,8.9,18.2,13.7c3.9,3.2,7.6,6.4,11.1,10c3.3,3.4,6.3,6.9,9,10.6
			c0.5-0.3,1-0.6,1.5-0.8c-3.2-4.5-6.8-8.6-10.8-12.5c-6.6-6.4-13.7-12.3-21.1-17.7c-2.3-1.7-4.7-3.5-7.1-5
			c-0.3-0.2-0.5-0.5-0.6-0.7c0-0.7,0.2-1,0.7-1.3c0.6-0.2,1.1,0.1,1.5,0.4c11.4,7.7,22.4,16.1,31.9,26.1c3,3.1,5.7,6.4,8.2,9.8
			c0.7-0.1,1.3-0.1,1.9-0.1c-0.1-0.1-0.1-0.2-0.2-0.2c-5.1-7.3-11.2-13.8-18-19.6c-6.6-5.6-13.3-10.9-20.4-15.9
			c-2.2-1.6-4.6-2.8-6.9-4.8c2.3-6.6,1.5-12.9-0.1-19.3c-0.8-3.4-1.7-6.7-2.3-10.2c-0.3-1.9-0.2-3.7,0.1-5.6
			c1.6-9.6,2.3-19.2,1.3-28.9c-0.9-8.2-4.1-15.5-8.4-22.4c-4-6.2-8.5-12.1-12.7-18.1C222.1,49,219.4,45.3,216.7,41.6z M220.1,177.8
			c2.8-9.5,4.9-18.8,8.2-27.8c3.2-0.7,5.2-2.6,6.6-5.3c1.5-2.7,2.9-5.4,4.7-8c1.2-1.7,2-3.7,4.1-5.2c0.9,4,1.7,7.7,2.4,11.5
			c0.4,1.9,0.5,3.9,0.5,5.9c0,7.8-3.7,13.9-9.5,18.6C232.1,171.5,226.3,174.5,220.1,177.8z M143.3,211.5c0.1-2.9,0.7-5.6,2.2-8.1
			c1.6-2.8,3.3-5.4,5.6-7.7c3-3.1,5.9-6.3,8.9-9.4c0.8-0.9,1.7-1.8,2.4-2.8c2.6-3.8,5.1-7.6,7.6-11.4c1.4-2.1,3.1-3.9,5.2-5.5
			c3.1-2.3,6.3-4.3,9.6-6.2c4-2.4,8.1-4.7,11.6-7.8c4.5-3.8,9.5-6.6,15.2-8.1c2.1-0.5,4.2-1.1,6.3-0.9c2.6,2.5,4.8,5.5,8.6,6.1
			c0.2,0.8,0,1.2-0.2,1.7c-1.3,3-2.4,6.1-3.2,9.3c-1.6,6.1-4.2,11.8-6.9,17.5c-3.7,7.7-8.7,14.4-15.4,19.8
			c-4.3,3.5-8.9,6.5-13.5,9.5c-9.6,6.1-19.8,10.6-31,12.7c-1.2,0.2-2.4,0.5-3.6,0.5C147.5,220.6,143.2,218.1,143.3,211.5z
			 M211.7,134c1.1,0.7,2,1.6,2.1,3.1c-2.6-1.3-5-2.6-7.6-3.3c-2.7-0.7-4.2-2.6-6.6-4.4c1.7,0.3,2.9,1,4.1,1.5
			C206.3,132,208.8,133.4,211.7,134L211.7,134z M124.1,188.7c0.6-0.2,1.3-0.3,1.9-0.4c13.8-2.3,26.9-6.6,39-13.8
			c0.5-0.3,1-0.6,1.7-0.5c-3.7,6.4-8.4,12-13.6,17.2c-2.7,2.7-5.3,5.5-7.4,8.8c-2.6,4-4.4,8.3-3.9,13.2c0.4,4.1,2.4,7,6.4,8.4
			c0.5,0.2,1.1,0.4,2,0.7c-4.8,2.6-9.6,4-14.3,5.3c-11.7,3.3-23.5,3.9-35.2-0.1c-5.7-1.9-11.5-3.5-17.3-4.9
			c-2.3-0.5-4.4-1.4-6.4-2.8c-1.7-1.2-2.5-2.7-2.5-4.7c0-2.5,1-4.6,2.5-6.4c2-2.5,4.4-4.5,7.2-6.2c4.4-2.7,9.3-4.5,14.1-6.2
			C106.7,193.4,115.6,191.7,124.1,188.7z M136.9,110.7c15.5,7.7,31.5,14.3,47.9,20c6.2,2.2,12.5,4.1,19.1,4.5
			c3.3,0.2,6.2,1.1,9.2,2.2c2.1,0.8,2.8,2.4,3.4,4.3c-1.7,0.3-3.2,0.4-4.6,0.9c-3.7,1.2-7.4,0.9-11.1,1c-0.7,0-1.6,0.1-2.2-0.4
			c-2.2-1.7-4.7-1.6-7.3-1.7c-1.6,0-3.2,0-4.8,0c-3.7,0.1-7.1-0.9-10.4-2.7c-3.3-1.8-7.1-2-10.9-2.1c-1.3,0-2.1,0.6-2.2,2
			c2.9,3.5,11.4,5.2,18.5,3.5c-2,1.4-4.2,1.8-4.8,3.9c0.6,1.7,2,1.7,3.2,1.8c3.1,0.4,6.2,0.2,9.3-0.3c3-0.5,5.9-0.9,8.4-2.8
			c0.5-0.4,1-0.4,1.6-0.4c2,0.2,3.9,0.1,5.9,0.2c-2.9,1.6-5.7,3.2-8.1,5.2c-1.7,1.4-3.3,2.2-5.5,2.1c-1.2,0-2.3,0.2-3.5-0.6
			c-0.7-0.4-1.6-0.5-2.4-0.7c-4.8-0.7-9.5-0.6-14.3,0c-1,0.1-2,0.4-2.7,1.2c-0.2,1.1,0.1,1.7,1,2.1c1,0.5,2.1,0.7,3.3,0.8
			c4.2,0.5,8.4,0.4,12.6-0.2c1.1-0.2,2.3-0.3,3.2-0.9c1.2-0.8,2.6-0.8,4-1.1c-0.5,1.1-1.3,1.5-2.1,2c-4.1,2.5-8.2,5-12.2,7.5
			c-3.4,2.1-6.8,4.4-9.1,7.8c-1.1,1.7-2.5,2.7-4.3,3.4c-0.6,0.2-1.2,0.5-1.8,0.8c-7.9,3.9-16.1,7.1-24.6,9.6
			c-14.1,4.2-28.4,5-42.8,1.7c-9.2-2.1-17.4-6.1-25.1-11.5c-2.8-2-5.3-4.2-7.9-6.3c-5.2-4-9.1-9.1-10.6-15.8
			c-0.6-2.5-1.5-4.8-2.2-7.3c-0.8-2.7-2.1-5.2-3.7-7.5c-0.9-1.2-1.8-2.4-2.7-3.6c-1.5-1.9-3-3.9-3.8-6.2c-1.1-3.4-0.7-6.5,1.6-9.2
			c1.8-2.1,3.8-4.1,6.1-5.7c17.6-12.1,36.9-16.7,57.9-12.7C116.7,101.8,127,105.8,136.9,110.7z M170.4,152.5
			c5.5-0.8,11.1-1.1,17,0.2C182.6,154.2,173.4,154.2,170.4,152.5z M192,145.7c-5.4,1.2-11,1.3-13.7,0.2c4-2.5,13.2-3.5,17.6-1.9
			C195,145.4,193.4,145.4,192,145.7z M165.2,138.4c4.3-0.1,8.1,1.4,12,2.7C173.4,141.9,167.6,140.6,165.2,138.4z M200.8,132.6
			c-2.4,0.1-4.6-0.7-6.7-1.6c-4.1-1.6-4.5-2-5.6-4C193.1,127.9,197.3,129.3,200.8,132.6z M180.8,122.4c-2.5-0.5-4.8-1.5-7-2.8
			c-0.9-0.5-2-1.1-1.7-2.5c4.4-0.7,11.7,2.3,14.5,6.1C184.3,123.5,182.6,122.8,180.8,122.4z M190.8,64c3.1,4.6,5.9,9.4,7.2,14.8
			c1.5,5.6,3.2,11.2,5.5,16.5c0.3,0.7,0.6,1.4,0.4,2.2c-0.8,2.8-0.9,5.7-1.1,9c-1.2-1.3-2.4-2-3.7-2.5c-0.6-0.2-1.3-0.3-1.8,0.3
			c-0.5,0.6-0.3,1.2-0.1,1.8c0.2,0.4,0.4,0.8,0.7,1.2c1.3,1.8,2.5,3.8,4.1,5.3c2.1,1.9,2.8,4.3,3.6,7.5c-1.4-1.3-2.3-2.3-3.3-3.1
			c-1-0.8-2.1-1.5-3.3-2.2c-2.8-1.7-5.2-3.8-6.5-7c-0.5-1.1-1.2-2.1-2.1-3c-1.5-1.4-3-2.8-4.5-4.2c-1.3-1.2-2.9-2-4.5-2.8
			c-1.1-0.5-2.1-0.8-3.3-0.1c-1,1.8,0.1,3.3,1.3,4.4c3.7,3.8,7.9,7.1,13.3,8.3c0.3,0.1,0.7,0.3,0.9,0.6c0.9,0.9,2.1,1.6,2.8,2.8
			c-1.8,0.9-1.6,2.4-0.9,4.2c-2.2-1.4-4-2.6-5.8-3.7c-1.1-0.7-2.3-1.2-3.6-1.5c-1-0.2-1.9-0.1-2.6,0.8c-0.7,0.9-0.4,1.7,0.1,2.6
			s1.1,1.7,1.8,2.5c1.4,1.6,3.2,2.6,4.9,3.7c2.5,1.7,5.1,3.6,8.2,4c2.7,0.3,4.9,1.5,7.2,2.8c1.3,0.8,2.6,1.4,4.3,2.2
			c-0.9-1.1-1.6-1.8-2.5-2.2c-1.6-0.9-3.3-1.8-4.9-2.7c-1-0.6-1-0.7-0.9-2.2c2.4,2.2,5.2,3.7,7.9,5.2c0.6,1.1,1.1,2,1.6,3
			c0.3,0.5,0.4,1,0.1,1.5c-0.7-0.5-1.5-1-2.3-1.5c-6.2-3.2-12.4-6-18.8-8.6c-0.9-0.4-2.1-0.5-2.6-1.6c-0.8-1.8-2.4-2.6-4-3.5
			c-3.3-1.9-6.7-3.4-10.6-3.5c-1.1,0-2.3,0.1-2.9,1.3c-0.6,1.3,0.2,2.3,0.9,3.3c0.3,0.4,0.9,0.7,1.4,1c1.8,1.2,3.8,2,5.9,2.7
			c2.6,0.8,5.3,1.6,8.2,1.9c-1.3,2.5,1,3.5,2.2,5.3c-1-0.3-1.6-0.5-2.2-0.7c-9.5-3.4-19-7-28.3-10.9c-9.5-4-18.5-8.9-27.9-13.1
			c-2.2-1-4.3-2.4-6.1-4c-5.6-4.8-10.3-10.4-13.2-17.2c-3.5-8.2-5.5-16.9-7.5-25.6c-0.1-0.4-0.1-0.7,0.3-1.2c3-0.3,5.3,2.4,8,2.6
			c0.9-0.7,0.7-1.3,0.4-1.9c-0.4-0.8-0.9-1.6-1.5-2.4c-2.2-3.3-4.5-6.5-6.4-9.9c-1-1.9-1.9-3.9-2.2-6c-0.4-3.2,1-5.9,3.8-7.5
			c2.8-1.6,5.8-2.1,9-1.9c2.5,0.2,5.1,0.5,7.5,1c5.4,1.1,10.9,1.6,16.5,1.8c4.3,0.1,8.6,0.6,12.8,1.9c10.9,3.4,20.5,9.1,28.7,17
			C184.5,56,187.9,59.8,190.8,64z M196.6,115.5c4.1,1,10.2,6.8,12,11.3C203.7,124.8,197.8,119.3,196.6,115.5z M199.9,124.8
			c-0.9,0.4-1.7,0-2.4-0.4c-1.7-0.8-3.4-1.6-5-2.6c-2.3-1.4-4.6-2.9-6.4-5c-0.6-0.7-1.3-1.3-1-2.4
			C189.4,114.9,198.2,121.1,199.9,124.8z M191.3,108.3c-5.6-1.9-10.6-6-11.6-9.7C184.3,100.6,188.1,103.7,191.3,108.3z M198.5,105.2
			c4.7,1.8,5.3,3.5,5,7.1C201.7,109.9,199.9,107.9,198.5,105.2z M214.1,47.2c2,6.7,2.2,13.5,0.5,20.2c-0.9,3.8-2.2,7.5-3.8,11.1
			c-1.9,4.1-3.6,8.2-5.4,12.3c-0.2,0.5-0.1,1.1-0.8,1.3c-0.1,0-0.2,0-0.3-0.1c-0.2-0.3-0.4-0.6-0.5-1c-4.7-10.6-5.6-21.7-3.1-33
			c0.8-3.8,1.3-7.6,1.6-11.4c0.1-1.8,0.4-3.6,0.8-5.3c0.5-1.8,1.2-3.6,3.5-4.2C210.6,39.5,212.8,43.1,214.1,47.2z M224.9,56
			c3.7,5.2,7.5,10.3,10.9,15.6c5.2,8,8.2,16.6,8.6,26.1c0.2,6-0.3,12-0.7,18c-0.8,11-5.7,20.5-11.2,29.6c-1.6,2.6-4.3,3.3-7.1,2.2
			c-2.4-0.9-4.1-2.6-5.5-4.7c-4.6-6.8-8.5-14.1-11.6-21.8c-4.1-10.2-4.6-20.3-0.2-30.6c2-4.6,3.6-9.4,5.3-14.2
			c2.5-7,4.6-14.1,3.8-21.7c-0.5-5.6-1.9-10.8-5.8-15.8c1.7,1.3,2.7,2.3,3.7,3.5C218.6,46.8,221.7,51.5,224.9,56z"/>
		<path fill="#8893C2" d="M211.1,140.9c-5.6-0.4-11.2-0.7-16.7-1.9c-0.8-0.2-1.6-0.4-2.5-0.2c-5.1,1.4-9.8,0.2-14.4-1.8
			c-0.7-0.3-1.4-0.9-2-1.5c-1.3-1.3-0.9-2.6,0.8-3.2c0.8-0.3,1.7-0.3,2.5-0.2c1.2,0.1,2.4,0.3,3.6,0.5c3.7,0.9,7.5,1.7,10.4,4.5
			c0.4,0.4,1,0.5,1.6,0.6c1,0.2,2,0.4,3,0.5c5.4,0.7,10.7,1.5,16.7,2.3C212.7,141,211.9,140.9,211.1,140.9z M187.1,135.3
			c-4.2-1.7-8.6-2.2-10.8-1.3c2.1,2.4,8,4,13.5,3.5C189.5,135.8,188.1,135.8,187.1,135.3z"/>
	</g>
	<g>
		<path fill="#8893C2" d="M40.8,118c3.3-2.3,7.1-3.3,10.8-4.3c11.8-3.2,23.9-3.7,36-2.7c15.8,1.3,31,5,46.1,9.7
			c8.2,2.6,16.3,5.5,24.7,7.7c0.5,0.1,0.9,0.2,1.4,0.3c0-0.5-0.4-0.6-0.7-0.7c-12-4.1-24-8.6-36.2-12.1c-14.8-4.2-29.9-6.9-45.4-7
			c-9.5-0.1-18.7,1.2-27.7,3.9c-2.8,0.8-5.5,1.9-8,3.5C41.1,116.6,40.5,116.9,40.8,118z"/>
		<path fill="#8893C2" d="M178.2,146.7c-1.4,0.1-2.8,0.2-4.2,0.3c-9.2,0.7-18.3,1.1-27.5,1.1c-13.2-0.1-26.4-1.5-39.5-3.4
			c-10.6-1.5-21.1-3.1-31.8-3.5c-5.5-0.2-11,0-16.6,0.1c0.1,0.9,0.7,0.7,1,0.7c17.7-0.4,35.1,2.4,52.6,4.8c15.2,2,30.4,3.2,45.7,2.3
			c6-0.3,12-0.9,17.9-1.4C176.6,147.8,177.5,147.9,178.2,146.7z"/>
		<path fill="#8893C2" d="M40.7,127.8c10.6-1.7,21.1-0.6,31.6,0.8c11.9,1.6,23.5,4.4,35.2,7.1c11.5,2.6,23.1,4.7,34.8,6.2
			c0.9,0.1,1.7,0.3,2.7,0.1c-0.1-0.5-0.4-0.5-0.7-0.5c-18.1-2.6-35.8-7-53.6-11c-9.2-2.1-18.6-3.7-28-4.4c-5-0.4-10.1-0.5-15.2-0.1
			C45.2,126.2,42.8,126.4,40.7,127.8z"/>
		<path fill="#8893C2" d="M82.1,168.7c6.9,3.5,34.3,7.2,47.3,6.4c18.7-1.1,44.1-8,54.2-14.8c-1.4-0.2-2.5,0.5-3.5,0.9
			c-5.6,2.3-11.3,4.5-17.1,6.3c-22.1,6.9-44.5,8.2-67.2,3.8c-3.8-0.7-7.5-1.5-11.3-2.2C83.9,169,83.2,168.9,82.1,168.7z"/>
		<path fill="#8893C2" d="M75.8,120c0.2,0.7,0.8,0.6,1.2,0.7c21.6,4.9,43.2,10.2,65.1,13.8c9.6,1.6,19.3,2.9,29,3.4
			c0.9,0,1.9,0.3,2.8-0.1c0.1-0.8-0.6-0.6-0.9-0.6c-22.6-2.1-44.9-6.4-67-11.2c-8.9-1.9-17.8-3.7-26.7-5.5
			C78.2,120.2,77.1,119.9,75.8,120z"/>
		<path fill="#8893C2" d="M66,149.9c17.7,6.1,35.4,8.8,53.4,9.5c16.8,0.7,33.5-0.6,50.5-4.3c-2.1-0.6-2.1-0.6-3.3-0.4
			c-5.5,0.7-11,1.6-16.5,2.1c-27.3,2.9-54.3,1.3-80.8-6.4c-0.7-0.2-1.4-0.4-2.2-0.6C67,149.8,66.8,149.9,66,149.9z"/>
		<path fill="#8893C2" d="M220.8,170.3c-2.6,3.2-4.9,6-7.1,8.8c-0.6,0.7-1.1,1.5-1.7,2.2c-1.6,1.8-3.3,3.6-4.7,5.6
			c-0.1,0.2-0.2,0.3-0.3,0.4c-6.4,6.3-12.5,12.9-20.1,17.8c-10.6,6.8-22.1,10.8-34.5,12.5c-1.1,0.1-2.2,0.3-3.3,0.4
			c-1,0.1-2,0.2-3,0.5c1.7,0.7,3.4,0.7,5.1,0.5c14.4-1.5,27.6-6.3,39.4-14.9c2.8-2,5.3-4.4,7.9-6.7c3-2.6,5.6-5.5,8.4-8.3
			c3.3-3.4,6.1-7.1,8.8-10.9c1.2-1.6,2.5-3.2,3.7-4.9C219.9,172.6,220.4,171.7,220.8,170.3z"/>
		<path fill="#8893C2" d="M238.8,134.2c2.1-3.8,3.6-7.8,3.8-12.1c0.5-10-1.5-19.6-5.2-28.8c-3.8-9.6-8.4-18.7-13.3-27.8
			c-2.6-4.9-5.2-9.7-7.5-14.7c-0.3-0.6-0.4-1.5-1.2-1.9c-0.2,1.1,0.4,1.9,0.8,2.7c2.8,7.2,6.5,14.1,10,21c3.5,6.8,6.7,13.8,9.6,20.9
			c3.2,7.8,5.1,15.8,5.5,24.3c0.2,4.5-0.3,9-1.6,13.3C239.3,132,239.1,133.1,238.8,134.2z"/>
		<path fill="#8893C2" d="M51.8,152.3c1.4,1.6,3.3,2.4,5.1,3.3c14.1,6.7,28.9,10.6,44.4,12.2c12.2,1.2,24.3,0.4,36.4-1.2
			c0.3,0,0.5-0.1,0.8-0.2c0.1,0,0.1-0.2,0.2-0.5c-14.9,1.6-29.7,1.9-44.5-0.4C79.5,163.1,65.4,158.8,51.8,152.3z"/>
		<path fill="#8893C2" d="M148.8,34.3c1.5,1.6,3.2,2,4.6,2.8c3.9,2.3,7.8,4.8,11.4,7.6c1.7,1.4,3.6,2.7,5.2,4.3
			c10.9,10.3,19.5,22.3,25.6,36.1c2.4,5.4,4.2,11,6.7,16.4c-0.2-1-0.3-2-0.6-3c-3.2-11.4-8.1-22.1-14.8-31.9
			c-5.7-8.3-12.6-15.6-20.2-22C162.8,41.2,154.6,35.8,148.8,34.3z"/>
		<path fill="#8893C2" d="M179.4,96.6c0.1-1.1-0.3-1.7-0.7-2.3c-3-4.3-6.3-8.3-9.7-12.3c-6.4-7.6-13.6-14.4-21-21.1
			c-6-5.5-12.7-10.1-19.7-14.3c-3.8-2.2-7.5-4.6-11.4-6.5c-0.8-0.4-1.6-0.9-2.9-0.8c4.7,2.5,9,5.1,13.2,7.8c4.1,2.6,8.2,5.2,12,8.3
			c5.4,4.3,10.8,8.6,15.7,13.6c4.3,4.4,8.6,8.8,12.7,13.5c3.1,3.6,6.1,7.3,8.9,11.1C177.3,94.7,178.3,95.5,179.4,96.6z"/>
		<path fill="#8893C2" d="M195.9,99.4c-0.7-3.5-2.2-6.7-3.7-9.9c-3.8-8.2-8.6-15.7-14.2-22.7c-4.6-5.7-9.4-11.1-15.1-15.8
			c-5.5-4.6-11.4-8.8-17.8-12.1c-0.4-0.2-0.8-0.4-1.7-0.2C167.5,53.3,184.7,73.7,195.9,99.4z"/>
		<path fill="#8893C2" d="M166.7,175.9c-1.3,0.1-1.8,0.5-2.3,1c-6.4,5.9-13.6,10.5-21.2,14.6c-14.1,7.6-29,13.5-44.4,18.1
			c-2,0.6-3.9,1.2-5.9,1.8c-0.3,0.1-0.8,0.1-0.8,0.6c1,0.2,2-0.2,2.9-0.5c18.5-5,36.4-11.5,53-21.3c6.2-3.7,12.2-7.7,17.2-12.9
			C165.7,177,166,176.6,166.7,175.9z"/>
		<path fill="#8893C2" d="M169.8,106.9c-1.8-1.4-3.5-2.7-5.3-4.1c-4.2-3.1-8.5-6.1-12.7-9.1c-3.2-2.3-6.4-4.5-9.5-6.9
			c-1.9-1.4-3.7-2.9-5.5-4.4c-4.7-4-9.5-7.9-13.8-12.3c-3.3-3.3-6.8-6.5-9.6-10.2c-0.8-1-1.8-1.8-3.2-3.1c1,2.6,2.6,4.1,3.9,5.7
			c5.4,6.5,11.7,12.1,18,17.7c2.8,2.5,5.8,4.7,8.7,7c4,3.1,8.1,6,12.2,8.9c5,3.5,10.1,7.1,15.4,10.1c0.5,0.3,0.9,0.6,1.4,1
			C169.7,107.1,169.7,107,169.8,106.9z"/>
		<path fill="#8893C2" d="M164.1,113.3c-2.1-1.4-4.3-2.9-6.5-4.3c-7-4.4-14-8.9-20.8-13.6c-7.9-5.5-15.1-11.7-21.8-18.5
			c-3-3-5.8-6.4-8.6-9.6c-0.5-0.6-0.9-1.4-1.4-2.4c-0.4,1.6,0.5,2.4,1,3.3c0.6,1,1.3,2,2.2,2.9c2.2,2.2,3.9,4.8,6.2,6.8
			c1.7,1.5,3.1,3.3,4.7,4.8c3.6,3.4,7.4,6.6,11.3,9.6c5.8,4.5,12,8.5,18.3,12.4C153.7,107.9,158.7,110.9,164.1,113.3z"/>
		<path fill="#8893C2" d="M161.4,207.7c0.5-0.2,1.1-0.3,1.6-0.5c11.6-4.5,23.1-9.2,33.3-16.4c3.8-2.7,7.5-5.4,11-8.6
			c3.5-3.1,6.8-6.5,9.9-10c2.5-2.8,4.8-5.8,6.4-9.2c0.2-0.3,0.4-0.7,0.1-1.2c-0.9,0.3-0.9,1.3-1.3,1.9c-1.9,2.9-4.4,5.4-6.4,8.2
			c-1.4,1.9-3.4,3.2-5,4.9c-12,12.3-26.6,20.3-42.1,27c-2.5,1.1-5.1,2.2-7.6,3.3C161.2,207.3,161.3,207.5,161.4,207.7z"/>
		<path fill="#8893C2" d="M216.7,64.5c0.1,2.7,1,5.3,1.9,7.8c3,8,5.5,16.1,8.2,24.2c3.1,9.4,5,19,5.4,28.9c0.2,4.1,1,8.2,1.7,12.2
			c0.1,0.8,0.4,1.6,0.7,2.8c0.5-0.8,0.3-1.3,0.2-1.8c-1.1-6.2-1.6-12.5-1.8-18.7c-0.3-6.9-1.6-13.6-3.7-20.1
			c-2.9-9.3-6-18.5-9.8-27.5C218.5,69.8,217.6,67.1,216.7,64.5z"/>
		<path fill="#8893C2" d="M119.9,30.3c0.6,1.3,1.7,1.5,2.6,1.9c5.1,2.2,10.1,4.5,14.8,7.3c4.5,2.7,8.8,5.5,13,8.7
			c5.6,4.1,11,8.4,16.2,12.9c2.5,2.1,5.1,4,7.7,6.1c-2.6-2.6-5.2-5.2-7.8-7.7c-0.9-0.8-1.8-1.6-2.7-2.4c-3.5-3.3-7.3-6.1-11.1-9
			c-3.6-2.7-7.2-5.3-11-7.8c-6-3.9-12.4-7-19-9.6c-0.5-0.2-1.1-0.3-1.6-0.4C120.8,30.1,120.5,30.2,119.9,30.3z"/>
		<path fill="#8893C2" d="M227.1,150.8c-1.7,1.1-2.5,3-3.6,4.5c-2.7,3.9-6.1,7.3-9.7,10.4c-6.2,5.3-13,9.7-19.9,13.9
			c-9.7,5.9-20.1,10.4-30.8,13.9c-0.5,0.2-1,0.4-1.6,0.6c-0.1,0-0.1,0.2-0.1,0.3c1.2,0.1,2.1-0.5,3.2-0.8
			c15.6-4.7,29.9-12.1,43.1-21.6c5.4-3.8,10.2-8.2,14.5-13.1c1.2-1.3,2-2.9,2.9-4.4C225.8,153.3,226.1,151.8,227.1,150.8z"/>
		<path fill="#8893C2" d="M223.3,140.7c-1-2-1.8-3.7-2.7-5.3c-3.3-6.3-4.7-13.2-6.1-20.1c-1.2-6.1-1.7-12.2-1.6-18.4
			c0-5.4,0-10.9,0.9-16.2c0.4-2.3,0.5-4.6,0.2-6.9c-0.2,0.2-0.4,0.3-0.5,0.4c-0.8,8.4-2.2,16.7-1.9,25.2c0.2,8.9,1.6,17.5,3.9,26
			c1.4,5.3,4.1,10,6.9,14.6C222.4,140.1,222.7,140.3,223.3,140.7z"/>
		<path fill="#8893C2" d="M162.5,183.4c2.8-3.4,6.5-4.9,10.2-6.6c7.6-3.4,15.4-6.2,23.2-9.2c6.5-2.5,12.7-5.5,18.6-9.2
			c0.6-0.4,1.1-0.7,1.5-1.5c-2.9,1.5-5.7,2.9-8.4,4.2c-5.7,2.8-11.7,5-17.7,7.1c-6,2.2-11.9,4.6-17.6,7.2c-2.5,1.2-5,2.6-7.3,4.2
			C163.5,180.7,162.9,181.6,162.5,183.4z"/>
		<path fill="#8893C2" d="M79.5,223.2c15,3.8,48.9-1.8,58.1-9.4c-9.2,3.6-18.6,6.5-28.4,7.9C99.3,223,89.4,223.2,79.5,223.2z"/>
		<path fill="#8893C2" d="M110.7,85.3c0,0.9,0.6,1.2,1.1,1.6c3.3,3.3,7.1,6,10.9,8.9c10,7.6,21,13.2,32.3,18.5
			c4.7,2.2,9.5,4.4,15,5.9c-1.6-1.4-3.2-1.9-4.7-2.5c-10.1-4.4-20-9.3-29.6-14.8c-5.4-3-10.4-6.5-15.4-10.1
			C116.9,90.4,114,87.7,110.7,85.3z"/>
		<path fill="#8893C2" d="M139,89.8c4,4.4,8.5,8.1,13.3,11.5c4.7,3.4,9.4,6.8,14.5,9.6c5.6,3.1,11.4,6,17.4,8.5
			c1,0.4,1.9,1.1,3.1,0.8c0.2-0.9-0.6-0.9-1-1.2c-4.9-2.5-9.8-5-14.8-7.5c-6.6-3.3-12.8-7.2-18.8-11.6C148,96.8,143.2,93.7,139,89.8
			z"/>
		<path fill="#8893C2" d="M176.2,96.6c0.1-0.9-0.1-1.3-0.3-1.7c-2-2.6-4.1-5-6.2-7.6c-2.6-3.3-5.8-6.1-8.6-9.2
			c-3.9-4.3-8.2-8.2-12.7-11.9c-2-1.7-4.1-3.3-5.9-5.1c-2.2-2.1-4.9-3.6-7.4-5.4c2.6,2.3,5.2,4.6,7.9,6.9c6,5.2,12,10.5,17.3,16.4
			c0.7,0.8,1.4,1.5,2.2,2.2c3,2.9,5.7,6.1,8.4,9.3C172.4,92.5,174.2,94.4,176.2,96.6z"/>
		<path fill="#8893C2" d="M218.1,82c3.3,17.8,6.3,35.8,10.9,54.1c0.5-1.2,0.3-1.9,0.1-2.5c-2-9.8-4-19.6-6-29.4
			c-1.1-5.4-2.3-10.8-3.5-16.2C219.3,85.9,218.6,84,218.1,82z"/>
		<path fill="#8893C2" d="M159.8,184.7c-15.3,10.8-32.3,18.5-50.2,25.5c4-0.5,17.8-5.8,26.5-10.2
			C144.5,195.6,152.8,191.2,159.8,184.7z"/>
		<path fill="#8893C2" d="M121.8,192.4c-1.4-0.1-2.5,0.4-3.5,0.7c-12.3,3.7-24.5,7.6-36.1,13.1c-2.6,1.2-5.3,2.4-7.2,4.7
			c-0.2,0.2-0.3,0.5-0.6,1c5.9-4.2,12.5-6.5,18.8-9.1c8.5-3.5,17.2-6.2,25.9-9.2C120,193.3,120.9,193.2,121.8,192.4z"/>
		<path fill="#8893C2" d="M243.9,105.8c0.7-9.2-1.3-17.7-6.3-25.4c-3.6-5.5-7.6-10.8-11.4-16.2c-1.1-1.5-2.1-3-3.3-4.5
			c1.1,2.8,2.8,5.2,4.5,7.7c2.8,4.3,5.7,8.5,8.6,12.7c4.5,6.7,7,14,7.7,22C243.7,103.4,243.8,104.6,243.9,105.8z"/>
		<path fill="#8893C2" d="M188.1,186.5c-13.6,7.1-28.2,11.7-43.2,15.9c1,1.1,1.9,0.6,2.6,0.4c11.3-2.7,22.3-6.3,32.7-11.6
			C182.9,189.8,185.7,188.5,188.1,186.5z"/>
		<path fill="#8893C2" d="M230.8,147.6c-4.5-8.3-8.3-16.8-11.1-25.7s-3.6-18.1-4.1-27.4c-1.1,5.4,0.5,19,3.2,27.8
			C221.6,132.1,227.7,145,230.8,147.6z"/>
		<path fill="#8893C2" d="M186.3,114.4c0.3-0.9-0.2-1.4-0.7-1.8c-5.1-4.7-9.8-9.8-15.4-13.9c-0.5-0.3-0.9-0.7-1.3-1.1
			c-4.2-3.9-8.6-7.4-13.2-10.9c-0.8-0.6-1.5-1.4-2.3-2c-0.7-0.6-1.3-1.4-2.8-1.2c4.1,2.5,6.9,6.1,10.5,8.7c1.1,0.8,2.1,1.6,3,2.5
			c7,6.3,14.3,12.4,21,19C185.5,113.9,185.9,114.1,186.3,114.4z"/>
		<path fill="#8893C2" d="M240.4,135.3c-0.3,1,0.3,1.8,0.6,2.7c1.1,3,2.2,5.9,3.2,9c1.4,4.3,1.6,7.8,0.9,11.3
			c-3.8-4.3-8-8.3-11.1-13.1c0.3,3.4,2.9,5.5,4.9,7.8s4.3,4.3,6.5,6.5c1.4-3.4,1.2-6.8,0.5-10.2
			C245.3,145.9,242.4,138.7,240.4,135.3z"/>
		<path fill="#8893C2" d="M205.1,38.7c0.8,2.7,1.5,5.4,2.4,8c3.2,9.8,4.9,19.8,3.3,30.2c0.7-0.7,0.7-1.6,0.9-2.5
			c1.2-7.2,0.7-14.4-1.3-21.4C209,48.2,207.2,43.5,205.1,38.7z"/>
		<path fill="#8893C2" d="M143.4,214c-5.3,2.3-10.5,5.2-16,7s-11.2,3.1-17.1,4C116.4,226.7,138.9,219.3,143.4,214z"/>
		<path fill="#8893C2" d="M75.5,132.7c-3.1-1.1-6.2-1.5-9.3-1.8c-5.6-0.7-11.1-1.2-16.8-1c-1.7,0.1-3.4,0.2-5,0.6
			c-0.8,0.2-1.7,0.3-2.2,1.5C53.5,130.1,64.5,131.6,75.5,132.7z"/>
		<path fill="#8893C2" d="M207,71.1c-1.8-10.4-4.8-20.6-4.6-31.3c-0.7,0.9-0.8,2-0.8,3.1c-0.1,2.8,0,5.6,0.4,8.4
			c0.7,5.7,2,11.2,3.6,16.7C206,69.2,206.2,70.3,207,71.1z"/>
		<path fill="#8893C2" d="M195.2,160.4c6.4,0,25.5-8.7,29.1-13.1c-3.5,1.8-6.6,3.4-9.7,5c-3.1,1.7-6.3,3.2-9.6,4.5
			C201.8,158,198.5,159.2,195.2,160.4z"/>
		<path fill="#8893C2" d="M225.4,162.2c5.3,4.3,15.5,4,17.8-0.2C237.5,164.8,231.7,164,225.4,162.2z"/>
		<path fill="#8893C2" d="M189.1,157c6.6-2.4,13-5.1,19.5-7.5C205,149.3,194.7,153.3,189.1,157z"/>
		<path fill="#8893C2" d="M201.8,68.6c0,7.8,1.7,15.3,2.9,23C204.7,83.8,202.8,76.2,201.8,68.6z"/>
		<path fill="#8893C2" d="M222.5,167.9c3.8,3.7,11.4,3.6,14.8-0.1c-2.3,1.1-4.8,1.5-7.3,1.5C227.5,169.2,225.2,168.2,222.5,167.9z"
			/>
		<path fill="#8893C2" d="M229.4,150.4c3.6,5.5,8.3,8.4,13.9,10.1c-2.2-1.7-4.7-2.9-7-4.4C234,154.5,232.3,152.2,229.4,150.4z"/>
		<path fill="#8893C2" d="M242.7,151.5c-1.5-4.3-3.7-7.6-5.6-11.4c-0.1,2.1-0.1,2.1,2.1,5.9C240.2,147.7,240.9,149.6,242.7,151.5z"
			/>
		<path fill="#8893C2" d="M221.2,173.2c3.8,1.4,6.9,1,8.8-0.6C227,172.8,224.1,173,221.2,173.2z"/>
	</g>
</g>
</svg>
