<?xml version="1.0" encoding="utf-8"?>
<!-- Generator: Adobe Illustrator 27.6.0, SVG Export Plug-In . SVG Version: 6.00 Build 0)  -->
<svg version="1.1" id="Layer_1" xmlns="http://www.w3.org/2000/svg" xmlns:xlink="http://www.w3.org/1999/xlink" x="0px" y="0px"
	 viewBox="0 0 78 78" style="enable-background:new 0 0 78 78;" xml:space="preserve">
<style type="text/css">
	.st0{fill:#494B5A;}
</style>
<g>
	<g>
		<path class="st0" d="M29.7,76c1.2-1.1,4.6-4.5,5.7-5.7c2.1-2.2,4.1-4.6,5.7-7.2c1-1.5,1.7-3.2,2.1-4.9c0.2-0.8,0.3-1.6,0.3-2.4
			c0.1-1.2,0-2.4,0-3.5c-0.1-1.2-0.2-2.4-0.3-3.6c-0.1-1-0.2-1.9-0.3-2.9c-0.1-1-0.3-2-0.4-3c0-0.3-0.1-0.7-0.1-1
			c0-0.1,0-0.2-0.1-0.3c-0.1,0-0.1,0-0.1,0c-0.7,1.8-1.9,3.4-3.3,4.9c-3.1,3.3-6.9,5.6-11.2,7c-1.2,0.4-2.5,0.6-3.7,0.9
			c-2.9,0.5-5.8,1.1-8.6,2c-0.8,0.3-1.5,0.6-2.3,0.9c-0.1,0.1-0.3,0.1-0.5,0.2c-0.3,0.1-0.4-0.1-0.4-0.4c0-0.2,0.1-0.4,0.2-0.5
			c0.1-0.2,0.3-0.4,0.4-0.5c1.2-1.3,2.2-2.6,3.3-3.9c1.1-1.3,2.4-2.5,3.7-3.6c1.3-1.1,2.8-2.2,4.3-3.1c0.3-0.2,0.7-0.4,1.1-0.6
			c-0.2-0.1-0.4-0.1-0.6-0.1c-1.1,0-2.2,0-3.4,0c-0.9,0.1-1.7,0.1-2.6,0.1c-0.3,0-0.5,0-0.6-0.3c-0.1-0.3,0.1-0.5,0.3-0.7
			c0.2-0.2,0.5-0.4,0.8-0.5c0.8-0.4,1.7-0.8,2.5-1.1c0.6-0.3,1.2-0.6,1.7-1c0.2-0.2,0.4-0.3,0.6-0.4c0-0.1-0.1-0.1-0.1-0.1
			c-1.2,0-2.4-0.3-3.6-0.6c-1.4-0.5-2.7-1-4-1.5c-1.4-0.5-2.9-1-4.3-1.4c-0.5-0.1-0.9-0.3-1.4-0.5c-0.2-0.1-0.4-0.2-0.6-0.4
			c-0.4-0.4-0.4-0.9,0.1-1.1c0.2-0.1,0.4-0.2,0.6-0.2c0.5-0.1,0.9-0.2,1.4-0.2c1.6-0.1,3.1-0.1,4.7-0.2c0.1,0,0.1,0,0.3,0
			c-1.6-0.4-2.9-1.3-4.2-2.2c-1.5-1-2.9-2.2-4.2-3.4c-0.9-0.8-1.8-1.6-2.8-2.3c-0.3-0.2-0.5-0.4-0.7-0.7c-0.4-0.5-0.3-1,0.3-1.2
			c0.4-0.2,0.9-0.3,1.3-0.3c1.1,0,2.3,0,3.4,0c0.8,0,1.6,0.1,2.3,0.2c0.1,0,0.1,0,0.2,0c0.1-0.1,0-0.1,0-0.1c-0.9-0.9-1.6-1.9-2.3-3
			c-0.6-0.9-1.2-1.8-1.7-2.7c-0.2-0.4-0.4-0.7-0.5-1.2c-0.1-0.4,0-0.6,0.4-0.7c0.3-0.1,0.7-0.2,1-0.2c0.3,0,0.5,0,0.8,0
			c0.6,0,1.3-0.1,1.9-0.1c1-0.1,2-0.1,3,0.1c1.2,0.2,2.3,0.4,3.4,0.9c2.1,0.8,4.1,1.8,6,3.1c0.1,0.1,0.1,0.1,0.2,0.1
			c0.5,0.2,1,0.4,1.5,0.6c0-0.1-0.1-0.2-0.1-0.2c-1.6-1.5-2.5-3.3-3.2-5.3c-0.4-1.3-0.7-2.7-0.9-4.1C22.1,10.9,22,9.9,21.8,9
			c0-0.3-0.1-0.7-0.1-1c0-0.2,0-0.4,0.1-0.6c0.2-0.5,0.6-0.7,1.1-0.6c0.3,0.1,0.6,0.3,0.8,0.4c0.8,0.5,1.6,1,2.5,1.4
			c1.6,0.7,3,1.7,4.3,2.8c0.5,0.4,1,0.8,1.4,1.4c0,0,0.1,0.1,0.2,0.1c0.2-0.9,0.4-1.7,0.5-2.6c0.2-0.7,0.3-1.5,0.5-2.2
			c0-0.2,0.1-0.3,0.2-0.5c0.2-0.2,0.4-0.3,0.6-0.1c0.1,0.1,0.2,0.2,0.3,0.3c0.3,0.4,0.5,0.8,0.7,1.2c0.6,1.4,1.4,2.7,2.2,4
			c0.7,1,1.2,2.1,1.6,3.3c0.2,0,0.1-0.1,0.1-0.2c0-0.1,0-0.3,0-0.4c-0.1-0.6-0.1-1.1-0.1-1.7c0-0.7,0.1-1.5,0.1-2.2
			c0.1-0.9,0.2-1.8,0.5-2.7c0.4-1.7,0.8-3.5,1.4-5.2c0.2-0.5,0.4-1,0.7-1.5c0.1-0.1,0.2-0.3,0.3-0.4c0.2-0.2,0.6-0.2,0.7,0
			c0.1,0.1,0.2,0.2,0.3,0.4c1,1.7,1.9,3.5,2.5,5.4c0.4,1.3,0.8,2.7,1.1,4c0.1,0.8,0.2,1.7,0.3,2.5c0.1,1.3,0.2,2.6,0.2,4
			c0,0,0,0.1,0,0.1c0.1-0.1,0.2-0.2,0.2-0.3c0.4-0.6,0.8-1.3,1.3-1.8c0.1-0.2,0.3-0.3,0.4-0.4c0.5-0.4,1-0.9,1.3-1.4
			c0.1-0.2,0.3-0.4,0.5-0.5c0.4-0.2,0.7,0,0.7,0.4c0,0.3-0.1,0.7-0.1,1C51,16.1,50.9,17,51,17.9c0.1,0.5,0.1,1,0.1,1.5
			c0.1,0.9,0.2,1.9,0.3,2.8c0.1,0.7,0,1.4,0,2.1c0,0.2,0,0.4,0,0.7c0.2-0.5,0.3-0.9,0.4-1.4c0.6-1.8,1.4-3.4,2.4-5
			c1.3-2.1,2.8-4.1,4.6-5.8c1.5-1.4,3.3-2.6,5.2-3.5c0.8-0.4,1.7-0.6,2.6-0.7c0.4,0,0.7,0,1,0.1c0.5,0.2,0.6,0.5,0.3,0.9
			c-0.2,0.3-0.5,0.6-0.8,1c-0.9,1.1-1.6,2.3-2.2,3.5c-0.9,1.9-1.8,3.9-2.6,5.9c-0.8,1.9-1.6,3.9-2.4,5.8c-1.1,2.5-2.5,4.9-4.3,7
			c-0.9,1-1.8,2-2.9,2.7c0,0-0.1,0.1-0.1,0.1c0.1,0.1,0.2,0,0.3,0c0.5,0,1,0,1.5,0c1.4,0,2.8,0.3,4.2,0.7c2.2,0.6,4.2,1.7,6.1,2.9
			c2.2,1.4,4.3,3,6.2,4.7c0.7,0.6,1.5,1.2,2.3,1.8c0.1,0.1,0.3,0.2,0.4,0.3c0.1,0.1,0.2,0.2,0.3,0.4c0.1,0.3,0,0.5-0.3,0.6
			c-0.2,0-0.3,0-0.5,0c-0.7-0.2-1.5-0.3-2.2-0.4c-1.2-0.1-2.5-0.1-3.7-0.1c-0.3,0-0.6,0-0.8,0c-1,0-2,0.1-3,0.2
			c-0.8,0.1-1.5,0.2-2.3,0.2c-1.4,0.1-2.8,0.2-4.2,0.1c-1.4,0-2.8-0.1-4.2-0.2c-2.4-0.1-4.6-0.9-6.6-2.2c-0.4-0.3-0.8-0.5-1.2-0.8
			c-0.4-0.3-0.7-0.7-1.1-1c-0.1,0.4,0,0.7,0.1,1.1c0.1,1.2,0.3,2.4,0.4,3.6c0.1,1.1,0.2,2.1,0.3,3.2c0,0.4,0,0.8,0.1,1.2
			c0.1,1.4,0.2,2.9,0,4.3c-0.2,1.8-0.7,3.4-1.4,5.1c-0.7,1.6-1.7,3.1-2.8,4.5c-1.9,2.6-6.3,7.3-8.7,9.5c-0.2,0.1-0.3,0.3-0.4,0.5
			c-0.1,0-0.2,0-0.3,0c0-0.2,0.2-0.2,0.3-0.4c2.4-2.3,6.9-7,8.9-9.7c1.2-1.6,2.3-3.2,3-5c0.7-1.6,1.1-3.3,1.2-5.1c0-0.9,0-1.8,0-2.7
			c-0.1-1.4-0.2-2.7-0.3-4c-0.1-1.2-0.3-2.5-0.4-3.7c-0.1-0.6-0.2-1.2-0.6-1.8c0,0.2,0,0.3,0,0.4c0,0.3,0.1,0.7,0.1,1
			c0.1,0.9,0.2,1.9,0.3,2.8c0.1,1.2,0.2,2.4,0.3,3.6c0.1,0.8,0.1,1.6,0.1,2.4c0.1,1.4,0,2.7-0.3,4c-0.3,1.7-1,3.3-1.9,4.9
			c-1.4,2.5-3.2,4.7-5.1,6.7c-1.3,1.4-4.8,5-6.2,6.3c-0.1,0.1-0.2,0.2-0.3,0.3C30,76,29.8,76,29.7,76z M42.7,40.8
			c1,0.9,2.1,1.6,3.3,2.1c1.3,0.5,2.8,0.7,4.2,0.8c1.6,0.1,3.1,0,4.7-0.1c1.1-0.1,2.2-0.1,3.3-0.1c0.9,0,1.7,0,2.6,0.1
			c0.9,0,1.8,0.1,2.6,0.3c2,0.4,4,1,5.9,1.8c1.1,0.5,2.3,0.9,3.5,1.1c0.3,0,0.5,0.1,0.8,0c0-0.2-0.2-0.3-0.3-0.4
			c-0.3-0.2-0.6-0.4-0.9-0.6c-1.1-0.8-2-1.6-3-2.5c-2.3-1.9-4.7-3.6-7.3-5c-2.7-1.4-5.6-2.2-8.6-2.1c-0.8,0-1.5,0.1-2.3,0.3
			c-1.7,0.4-3.4,1-5.1,1.5c-0.2,0.1-0.3,0.2-0.4,0.3c-0.2,0.3-0.4,0.6-0.6,0.9c-0.1,0.1-0.1,0.2-0.2,0.2c-0.3,0-0.4,0.3-0.6,0.4
			c-0.3,0.3-0.7,0.6-1.1,0.8C42.9,40.6,42.8,40.7,42.7,40.8z M42.1,41c-0.2,0-0.4,0.1-0.7,0.2c-0.3,0.1-0.6,0.2-0.8,0.4
			c-0.2,0.2-0.4,0.3-0.6,0.4c-1,0.6-2.1,1.2-3.2,1.6c-2.2,0.7-4.5,1.1-6.8,1.2c-1.3,0.1-2.5,0-3.8-0.1c-0.1,0-0.3,0-0.4,0.1
			c-0.4,0.2-0.8,0.3-1.2,0.6c-1,0.6-2,1.3-3,2c-2.1,1.6-4.1,3.4-5.8,5.5C15,53.9,14,55,13,56.1c-0.2,0.2-0.3,0.4-0.5,0.6
			c-0.1,0.1-0.2,0.3-0.1,0.5c0.5-0.1,1-0.4,1.5-0.7c0.7-0.6,1.4-1.1,2.1-1.7c2.2-1.8,4.7-2.7,7.5-2.7c1,0,1.9,0,2.9,0
			c0.8,0,1.5-0.1,2.3-0.2c1.5-0.2,2.9-0.6,4.3-1.2c0.7-0.3,1.4-0.5,2-1c1.9-1.4,3.6-2.9,5.1-4.8c0.8-1,1.5-2.2,2.1-3.4
			C42.1,41.3,42.2,41.2,42.1,41z M67.8,9.3C67.5,9.1,67.1,9,66.7,9c-0.7,0-1.5,0.2-2.2,0.5c-2.1,0.8-3.9,2-5.5,3.5
			c-2.3,2.2-4.2,4.8-5.7,7.6c-0.8,1.4-1.3,3-1.7,4.5c-0.2,0.5-0.4,1-0.4,1.6c-0.2,1.3-0.5,2.7-1,3.9c-0.5,1.2-1.1,2.4-1.9,3.5
			c-0.4,0.5-0.8,1-1.2,1.5c-0.1,0.1-0.2,0.3-0.3,0.4c-0.2,0.4-0.4,0.8-0.6,1.2c0,0.1-0.1,0.2-0.1,0.3c0.3-0.1,0.6-0.2,0.8-0.3
			c1.4-0.4,2.7-0.9,4.1-1.2c0.3-0.1,0.6-0.1,0.9-0.2c1-0.5,1.8-1.1,2.3-2.1c0.4-0.7,0.8-1.5,1-2.4c0.3-1.4,0.5-2.9,0.7-4.3
			c0.1-1.2,0.3-2.4,0.6-3.7c0.2-1.1,0.5-2.2,1-3.3c0.8-1.8,1.9-3.2,3.3-4.5c1.2-1.1,2.5-2.1,3.8-3.1c1.1-0.8,2.1-1.7,3-2.7
			C67.7,9.7,67.9,9.6,67.8,9.3z M32,13.1c-0.2-0.2-0.4-0.5-0.6-0.7c-0.3-0.3-0.6-0.6-1-0.9c-1.4-1.1-2.9-2.2-4.5-2.8
			c-0.8-0.3-1.5-0.8-2.3-1.2c-0.2-0.1-0.4-0.3-0.6-0.4c-0.6-0.3-0.9-0.1-1,0.5c0,0.1,0,0.3,0,0.4c0,0.3,0,0.6,0.1,0.9
			c0.2,1.1,0.3,2.3,0.5,3.4c0.2,1.6,0.6,3.2,1.2,4.7c0.4,1.1,1,2.2,1.8,3.1c0.7,0.9,1.5,1.7,2.5,2.3c1.2,0.7,2.2,1.7,3.1,2.6
			c0.1,0.1,0.2,0.3,0.4,0.3c0.1-0.1,0.3-0.2,0.4-0.2c0.5-0.3,1-0.6,1.6-0.5c0,0,0.1,0,0.1,0c0.2-0.1,0.4-0.2,0.6-0.3
			C32.3,20.9,31.3,17.2,32,13.1z M31.5,25.5c-0.4-0.4-0.9-0.8-1.3-1.2c-1.9-1.8-4.2-3-6.8-3.7c-0.9-0.2-1.8-0.4-2.6-0.6
			c-1.2-0.3-2.5-0.6-3.7-0.9c-0.3-0.1-0.5-0.1-0.8-0.1c-0.3,0.1-0.4,0.2-0.3,0.5c0.1,0.3,0.2,0.5,0.4,0.7c0.6,0.8,1.1,1.7,1.5,2.6
			c0.8,1.6,1.8,3,3.2,4.2c0.5,0.5,1.1,0.8,1.8,1c1.7,0.4,3.3,1,4.8,1.8c1,0.6,2,1.1,2.9,2c0,0,0,0,0.1,0c0.1-0.1,0-0.2,0-0.3
			c-0.2-0.6-0.3-1.3-0.3-1.9c0-0.5,0-1,0-1.5c0-1,0.3-1.8,1-2.5C31.3,25.7,31.4,25.7,31.5,25.5z M33.6,7.5c-0.2,0.2-0.2,0.4-0.3,0.6
			c-0.2,1-0.4,1.9-0.6,2.9c-0.3,1.4-0.6,2.7-0.7,4.2c0,0.6,0,1.2,0,1.8c0.1,1.2,0.4,2.5,0.8,3.6c0.4,1.3,1.1,2.5,1.9,3.7
			c0.5-0.1,1-0.2,1.6-0.1c0.5,0.1,1,0.3,1.5,0.5c-0.2-0.6-0.3-1.2-0.3-1.8c0-0.8,0-1.7,0.1-2.5c0.1-1.2,0.4-2.3,0.8-3.4
			c0.1-0.3,0.1-0.6,0.1-0.8c0-0.1-0.1-0.2-0.1-0.4c-0.4-1-0.9-2-1.5-2.9c-0.9-1.3-1.6-2.6-2.2-4c-0.2-0.4-0.4-0.8-0.7-1.1
			C33.9,7.7,33.8,7.5,33.6,7.5z M47.8,31.5c0-0.4,0-0.8-0.1-1.3c-0.2-1.4-0.7-2.7-1.4-3.9c-0.5-0.7-1-1.4-1.6-2.1
			c-0.1-0.2-0.3-0.3-0.4-0.4c-0.2-0.1-0.4-0.1-0.5,0.1c-0.1,0.1-0.1,0.2-0.2,0.4c-0.1,0.3-0.3,0.7-0.5,1c-0.5,0.8-0.8,1.7-1.1,2.6
			c-0.6,1.9-0.9,3.8-0.6,5.8c0.3,1.8,1,3.4,2.2,4.9c0.2,0.2,0.4,0.4,0.7,0.6c0.3,0.2,0.4,0.2,0.6-0.1c0.8-1.2,1.5-2.5,2.1-3.9
			C47.4,33.9,47.8,32.8,47.8,31.5z M44.3,23.5c-0.1-0.3-0.1-0.6-0.1-0.8c0-1.3,0-2.5,0.1-3.8c0.1-1,0.1-2,0-3
			c-0.1-1.2-0.4-2.4-0.8-3.6c-0.2-0.6-0.4-1.1-0.6-1.7c-0.1-0.2-0.2-0.4-0.5-0.6c-0.2-0.1-0.3-0.1-0.4,0.1c-0.1,0.1-0.1,0.3-0.1,0.4
			c0,0.6-0.1,1.2-0.1,1.7c0,0.7-0.1,1.4-0.2,2c-0.3,1.6-0.8,3.1-1.8,4.5c-0.6,0.8-1.1,1.6-1.4,2.5c-0.4,1-0.5,2.1-0.3,3.1
			c0.1,0.4,0.2,0.7,0.5,0.9c0.8,0.6,1.4,1.4,1.8,2.3c0.3,0.6,0.5,1.3,0.7,2c0.1-0.2,0.1-0.3,0.1-0.4c0.3-1.1,0.6-2.1,1.1-3.1
			c0.4-0.7,0.8-1.4,1.1-2.2c0.1-0.3,0.3-0.4,0.7-0.4C44.2,23.5,44.2,23.5,44.3,23.5z M70.7,46.5c-1.4-0.5-2.8-1.2-4.2-1.6
			c-1.3-0.4-2.7-0.8-4.1-1c-1.1-0.1-2.1-0.2-3.2-0.2c-1.4,0-2.8,0.1-4.1,0.1C53.6,43.9,52.3,44,51,44c-1.2,0-2.4-0.1-3.6-0.4
			c-1.9-0.4-3.5-1.3-4.8-2.7c0-0.1-0.1-0.1-0.2-0.1c-0.1,0.1,0,0.2,0,0.3c0.6,1.1,1.3,2,2.2,2.7c2.4,1.8,5,3,8,3.1
			c1.5,0.1,3,0.1,4.5,0.2c0.8,0,1.7,0,2.5-0.1c0.5,0,1.1,0,1.6-0.1c0.3,0,0.7-0.1,1-0.1c0.7-0.1,1.3-0.2,2-0.2
			c0.6-0.1,1.2-0.1,1.9-0.1c1.4-0.1,2.7-0.1,4.1,0C70.4,46.5,70.5,46.5,70.7,46.5z M65.9,11.9c-0.1,0-0.1,0-0.2,0.1
			c-0.5,0.4-1,0.8-1.5,1.1c-1.4,1.1-2.8,2.2-4.1,3.5c-1.3,1.4-2.3,3-2.9,4.8c-0.6,1.8-0.9,3.7-1.1,5.6c-0.1,1.1-0.3,2.1-0.4,3.2
			c-0.2,1.1-0.4,2.2-1,3.2c0,0.1-0.1,0.1,0,0.2c0,0,0.1-0.1,0.1-0.1c0.3-0.4,0.7-0.8,1-1.2c1.6-2,2.9-4.3,3.9-6.7
			c1-2.5,2-4.9,3.1-7.4c0.9-2.1,1.8-4.3,3.1-6.3C65.9,12,66,11.9,65.9,11.9z M21.2,27.7C21.2,27.7,21.2,27.7,21.2,27.7
			c-0.1-0.1-0.2-0.2-0.3-0.3c-1.2-1-2.2-2.3-3-3.7c-0.5-0.8-0.9-1.7-1.4-2.4c-0.2-0.3-0.4-0.7-0.6-1c-0.2-0.2-0.2-0.5-0.3-0.8
			c0-0.4,0.2-0.6,0.6-0.6c0.2,0,0.5,0,0.7,0c1.3,0.3,2.5,0.6,3.8,0.9c1,0.2,2,0.4,3.1,0.7c0.1,0,0.2,0.1,0.3,0
			c-0.1-0.1-0.2-0.1-0.3-0.2c-1.3-0.8-2.7-1.5-4.2-2.2c-0.6-0.3-1.3-0.4-2-0.5c-0.3,0-0.7,0-1,0c-0.6,0.1-1.1,0.3-1.7,0.5
			c-0.8,0.3-1.5,0.4-2.4,0.4c-0.6,0-1.1-0.1-1.6-0.4c-0.2-0.1-0.4-0.2-0.6-0.3c-0.5-0.2-0.9-0.4-1.4-0.5c-0.4-0.1-0.5,0.1-0.4,0.5
			C8.6,18,8.8,18.4,9,18.7c0.9,1.6,1.9,3.1,3,4.6c0.6,0.7,1.2,1.4,2,2c0.2,0.2,0.5,0.3,0.8,0.4c0.8,0.2,1.6,0.5,2.4,0.8
			c0.8,0.3,1.7,0.6,2.5,0.9C20.2,27.5,20.7,27.6,21.2,27.7z M31.2,36.1c-0.3-0.2-0.6-0.3-0.8-0.3c-0.5-0.2-1-0.2-1.6-0.1
			c-0.9,0.1-1.8,0.4-2.7,0.6c-1.5,0.5-3,0.7-4.5,0.6c-0.6,0-1.2-0.1-1.8-0.1c-1.1-0.1-2.3-0.3-3.4-0.6c-1.4-0.3-2.7-0.8-4.2-0.8
			c-0.5,0-1,0-1.5,0c-0.2,0-0.3,0-0.5,0.1c-0.4,0.1-0.4,0.3-0.2,0.6c0.1,0.1,0.2,0.1,0.2,0.2c0.2,0.2,0.5,0.3,0.7,0.3
			c0.7,0.3,1.4,0.5,2.1,0.7c2.1,0.6,4.2,1.5,6.3,2.2c1.4,0.5,2.8,1,4.3,1.1c0.5,0,0.9,0,1.4-0.2c1.2-0.6,2.5-1.1,3.8-1.2
			c0.8-0.1,1.6-0.2,2.4-0.1c0.1,0,0.2,0,0.2,0c0-0.1-0.1-0.1-0.2-0.2c-0.5-0.3-1-0.6-1.5-0.9c-0.2-0.1-0.3-0.2-0.5-0.4
			c-0.2-0.3-0.2-0.5,0-0.7c0.2-0.2,0.4-0.3,0.6-0.3C30.3,36.3,30.7,36.2,31.2,36.1z M29.4,37.2c0.2,0.3,0.4,0.4,0.6,0.5
			c0.7,0.4,1.4,0.9,2.2,1.3c1.5,0.9,3,1.6,4.6,2c0.5,0.1,1,0.3,1.6,0.3c1,0.1,2,0,2.9-0.3c1-0.3,2-0.7,2.8-1.4
			c0.1-0.1,0.2-0.1,0.2-0.3c-0.4-0.3-0.7-0.6-1-0.9c-0.5-0.7-1-1.5-1.3-2.3c-0.1-0.1-0.1-0.3-0.3-0.3c-0.3-0.2-0.7-0.3-1-0.4
			c-0.5-0.2-1-0.1-1.6,0c-1.1,0.2-2.1,0.5-3.1,1.1c-0.2,0.1-0.5,0.3-0.7,0.4c-0.7,0.3-1.5,0.5-2.3,0.4c-0.7-0.1-1.3-0.2-2-0.3
			C30.4,36.8,29.9,36.9,29.4,37.2z M12.8,25.6c-0.4,0.2-0.4,0.4-0.3,0.7c0.1,0.2,0.2,0.3,0.3,0.5c0.2,0.2,0.4,0.4,0.6,0.7
			c0.7,0.7,1.4,1.4,2.1,2.2c0.7,0.9,1.4,1.8,2.3,2.6c0.7,0.7,1.4,1.2,2.2,1.6c0.3,0.1,0.5,0.2,0.8,0.2c1.4,0,2.8,0,4.2,0.2
			c0.7,0.1,1.4,0.2,2.1,0.3c1.5,0.3,3,0.7,4.4,1.3c0.1,0,0.2,0.1,0.3,0c0.5-0.2,0.9-0.3,1.4-0.5c-0.7-0.4-1.2-1-1.8-1.5
			c-0.9-0.8-2-1.3-3.2-1.4c-0.5-0.1-1.1-0.1-1.7-0.1c-0.4,0-0.8,0-1.3-0.1c-1-0.2-1.9-0.4-2.8-0.8c-2-0.8-3.8-1.9-5.5-3.1
			c-0.8-0.6-1.6-1.2-2.4-1.7C14,26.2,13.4,25.9,12.8,25.6z M40.4,41.5c-0.2,0-0.3,0-0.4,0c-0.6,0.1-1.2,0.1-1.8,0
			c-1.2-0.2-2.4-0.5-3.6-1c-0.6-0.3-1.2-0.3-1.7-0.2c-0.8,0.1-1.5,0.3-2.2,0.5c-1.1,0.4-2.2,0.8-3.3,1.3c-1.5,0.6-3.1,1-4.7,1
			c-0.8,0-1.5,0.1-2.3,0.3c-0.5,0.1-1,0.3-1.5,0.5c-0.2,0.1-0.4,0.2-0.4,0.5c0.1,0.1,0.3,0.1,0.4,0.1c0.9,0,1.7-0.1,2.6-0.1
			c1.2-0.1,2.4-0.1,3.5,0c1,0,2.1,0.2,3.1,0.2c1.4,0.1,2.9,0,4.3-0.2c1-0.1,2.1-0.3,3.1-0.6c1.7-0.4,3.2-1.1,4.7-2
			C40.2,41.7,40.3,41.6,40.4,41.5z M47.3,34.9C47.3,34.9,47.4,35,47.3,34.9c0.1,0,0.2-0.1,0.3-0.2c1-1,1.5-2.3,1.9-3.6
			c0.3-1.2,0.3-2.5,0.1-3.7c-0.1-1-0.3-1.9-0.5-2.9C49.1,23.8,49,23,49,22.2c0.1-1,0.2-1.9,0.4-2.8c0.2-1.1,0.6-2.2,1.1-3.2
			c0.1-0.3,0.3-0.6,0.4-1c0.1-0.3,0.1-0.6,0.2-0.9c0-0.1,0-0.3-0.1-0.4c-0.2-0.1-0.3,0-0.4,0.1c-0.1,0.1-0.2,0.2-0.2,0.3
			c-0.4,0.6-0.9,1-1.4,1.5c-0.9,0.9-1.6,2-2.2,3.1c-0.7,1.7-1,3.5-1,5.3c0,0.6,0.2,1.2,0.5,1.7c0.4,0.6,0.8,1.3,1.1,1.9
			c0.8,2,1,4,0.3,6.1C47.6,34.3,47.4,34.6,47.3,34.9z M39.1,15.4c0.1-0.1,0.2-0.2,0.3-0.3c0.1-0.1,0.2-0.2,0.2-0.4
			c0.9-1.3,1.6-2.7,2-4.2c0-0.2,0.1-0.4,0.2-0.5c0.2-0.4,0.5-0.4,0.8-0.2c0.1,0.1,0.3,0.2,0.3,0.3c0.1,0.2,0.3,0.4,0.4,0.6
			c0.6,1,1.1,2.1,1.4,3.2c0.6,1.8,1,3.5,1.2,5.4c0,0.2,0.1,0.5,0.1,0.8c0.2-0.4,0.3-0.8,0.4-1.1c0-0.1,0.1-0.2,0.1-0.3
			c0-0.7-0.1-1.5-0.1-2.2c0-0.2-0.1-0.4-0.1-0.6c-0.2-0.9-0.5-1.7-1-2.4c-0.5-0.7-0.9-1.5-1.4-2.2c-0.5-0.7-0.8-1.5-0.9-2.3
			c-0.2-1-0.3-2-0.3-3c0-0.7,0-1.5,0-2.2c0-0.5-0.1-0.9-0.2-1.4c0-0.2-0.1-0.4-0.3-0.4c-0.2,0-0.3,0.2-0.4,0.3
			c-0.3,0.5-0.5,0.9-0.7,1.4c-0.3,1-0.5,2-0.8,3.1c-0.6,2-1,4.1-1.1,6.2c0,0.8,0.1,1.5,0.1,2.3C39,15.3,39.1,15.4,39.1,15.4z
			 M31.1,33.3c-0.1-0.3-0.2-0.5-0.4-0.7c-0.3-0.3-0.7-0.7-1-0.9c-0.9-0.7-1.8-1.2-2.8-1.7c-1.5-0.7-3.1-1.2-4.7-1.7
			c-1.9-0.5-3.9-1.1-5.7-1.8c-0.6-0.3-1.3-0.5-2-0.6c-0.4-0.1-0.8-0.2-1.4-0.2c0.7,0.3,1.4,0.6,1.9,1c0.7,0.5,1.5,1,2.2,1.6
			c1.6,1.2,3.4,2.1,5.3,2.8c1.4,0.5,2.8,0.8,4.3,0.9c0.3,0,0.6,0.1,0.9,0.1C28.9,32.3,30.1,32.6,31.1,33.3z M41.3,34.5
			c-0.1-0.7-0.2-1.3-0.3-1.9c-0.3-1.8-1.1-3.3-2.3-4.6c-0.5-0.5-1.1-1-1.8-1.3c-0.4-0.2-0.7-0.3-1.1-0.2c-0.5,0.1-0.9,0.3-0.9,0.9
			c0,0.3,0,0.6-0.1,0.9c-0.1,0.2,0,0.5,0,0.7c0.1,0.5,0.4,1,0.7,1.4c0.5,0.7,1.1,1.2,1.8,1.8c0.8,0.6,1.6,1.3,2.4,1.8
			C40.3,34.1,40.7,34.4,41.3,34.5z M41.3,34.8c-1.3-0.4-2.3-1.1-3.3-1.9c-1.3-1-2.6-2-4-2.8c-0.3-0.1-0.5-0.3-0.8-0.4
			c-0.6-0.1-0.9,0-1.1,0.5c-0.2,0.4-0.2,0.9-0.1,1.3c0.2,1.3,0.9,2.4,1.9,3.2c0.2,0.1,0.3,0.2,0.6,0.1c0.2-0.1,0.4-0.1,0.6-0.2
			c0.7-0.2,1.5-0.3,2.2-0.3c0.6,0,1.2,0,1.9,0.2c0.7,0.1,1.5,0.3,2.2,0.7c0.1,0,0.1,0.1,0.2,0C41.5,35.2,41.4,35,41.3,34.8z
			 M7.2,27.2c0,0.1,0.1,0.1,0.1,0.2c1,0.9,1.9,1.7,2.9,2.6c1.3,1.2,2.8,2.2,4.3,3.2c1,0.6,2,1.1,3.1,1.3c0.2,0,0.4,0.1,0.6,0
			c0.2,0,0.4-0.1,0.6-0.1c0.4,0,0.7-0.1,1.1-0.1c-0.3-0.2-0.6-0.3-0.9-0.5c-0.9-0.5-1.6-1.2-2.2-2c-0.5-0.6-1.1-1.1-1.7-1.4
			c-0.2-0.1-0.4-0.2-0.7-0.3c-0.9-0.4-1.8-0.7-2.7-1c-1.5-0.5-3-1-4.5-1.7C7.3,27.1,7.2,27.1,7.2,27.2z M15.4,30.1
			c-0.1-0.1-0.2-0.2-0.3-0.3c-0.5-0.6-1-1.1-1.6-1.7c-0.3-0.3-0.7-0.7-1-1c-0.2-0.2-0.4-0.5-0.4-0.8c-0.1-0.3,0.1-0.6,0.4-0.8
			c0.2-0.1,0.4-0.1,0.6-0.1c0.1,0,0.3,0,0.5,0c-0.1-0.2-0.2-0.2-0.4-0.2c-0.8-0.3-1.6-0.4-2.3-0.4c-1.4-0.1-2.9,0-4.3,0
			c-0.4,0-0.7,0.1-1.1,0.3c-0.2,0.1-0.3,0.1-0.3,0.3c0.1,0.3,0.4,0.5,0.6,0.7c0.4,0.3,0.8,0.6,1.3,0.8c1.3,0.7,2.7,1.2,4.1,1.7
			c1.4,0.5,2.8,0.9,4.1,1.6C15.3,30.1,15.4,30.1,15.4,30.1z M14.5,56.2c0.1,0.1,0.2,0,0.3,0c0.9-0.3,1.9-0.6,2.9-0.9
			c2.2-0.6,4.5-1,6.8-1.4c2.2-0.4,4.3-1,6.3-2c0.1,0,0.2-0.1,0.3-0.2c-0.2,0.1-0.4,0.1-0.6,0.1c-1.5,0.3-3.1,0.6-4.6,0.5
			c-0.6,0-1.2-0.1-1.8-0.1c-0.8,0-1.6,0-2.3,0.1c-1.2,0.2-2.3,0.6-3.3,1.1C16.9,54.2,15.7,55.2,14.5,56.2z M28.6,35.2
			c-0.5-0.2-1.1-0.3-1.6-0.4c-0.9-0.2-1.8-0.3-2.7-0.4c-0.8-0.1-1.6-0.1-2.3-0.1c-0.4,0-0.9,0-1.3,0.1c-0.5,0-0.9,0-1.4,0.1
			c-0.8,0.1-1.6,0.2-2.4,0.2c-1.3,0-2.6,0.1-3.9,0.1c-0.6,0-1.2,0.1-1.8,0.2c0.2,0,0.5,0,0.7,0c0.5,0,1.1,0.1,1.6,0.1
			c0.8,0.1,1.7,0.3,2.5,0.6c1.5,0.4,3.1,0.8,4.7,0.7c0.5,0,1,0,1.5,0c1-0.1,2-0.3,3-0.5C26.3,35.6,27.4,35.3,28.6,35.2z M33.3,39.9
			c-0.7-0.4-1.5-0.7-2.3-0.8c-0.9,0-1.7,0-2.6,0.2c-1.7,0.4-3.3,1-4.7,2c-0.6,0.5-1.3,0.8-2.1,1.1c-0.5,0.2-1.1,0.5-1.6,0.7
			c0.1,0.1,0.2,0.1,0.3,0c0.9-0.2,1.8-0.3,2.7-0.3c1-0.1,2-0.2,2.9-0.5c1.1-0.3,2.1-0.8,3.1-1.2c0.9-0.4,1.9-0.8,2.9-1
			C32.3,40.1,32.8,40.1,33.3,39.9z M50.8,16c-0.1,0.2-0.1,0.3-0.2,0.4c-0.5,1.3-1,2.6-1.1,4c-0.1,1.2-0.1,2.3,0.1,3.4
			c0.2,1.3,0.5,2.7,0.5,4c0,0.8,0,1.5-0.1,2.3c0,0.3-0.1,0.7-0.2,1.1c0.1-0.1,0.1-0.2,0.1-0.2c0-0.1,0.1-0.2,0.1-0.3
			c0.6-1.6,1-3.3,1.1-5c0.1-1.2,0.1-2.5-0.1-3.7c0-0.4-0.1-0.8-0.1-1.2c-0.1-0.4-0.1-0.9-0.1-1.3C50.8,18.2,50.7,17.1,50.8,16z
			 M41,31.3c0.1-0.6,0.1-1.1-0.1-1.9c-0.4-1.9-1.4-3.4-3-4.4c-0.8-0.5-1.7-0.8-2.6-0.6c-0.4,0.1-0.8,0.2-1.2,0.4
			c-0.3,0.2-0.6,0.5-0.7,0.9c0,0.3,0.1,0.5,0.4,0.5c0.4,0,0.8,0.1,1.1,0.3c0.8-0.6,1.6-0.5,2.4,0c0.2,0.1,0.3,0.2,0.5,0.3
			c1.4,1,2.4,2.4,3.1,4C40.8,31,40.8,31.1,41,31.3z M46.2,14.5c0-2-0.4-4-1-5.9c-0.6-1.9-1.3-3.8-2.4-5.5c0.1,0.7,0.1,1.5,0.1,2.2
			c0,0.2,0,0.5,0,0.7c0,1.3,0.3,2.5,0.8,3.7c0.2,0.4,0.5,0.9,0.7,1.3c0.5,0.9,1,1.8,1.4,2.7C46,14,46.1,14.2,46.2,14.5z M37.8,22.8
			c0.1-0.6,0.2-1.2,0.4-1.7c0.4-1.2,0.9-2.3,1.5-3.3c1-1.8,1.7-3.7,1.9-5.8c0-0.1,0.1-0.3,0-0.4c-0.1,0.3-0.2,0.6-0.4,0.9
			c-0.5,1.3-1.4,2.5-2.1,3.7c-0.3,0.5-0.5,1-0.7,1.5c-0.3,1-0.5,2-0.6,3C37.8,21.3,37.8,22,37.8,22.8z M45.6,24.9
			c-0.1-1,0-1.9,0.1-2.8c0.1-0.6,0.2-1.2,0.1-1.9c-0.1-0.6-0.1-1.2-0.2-1.7c-0.2-1.7-0.7-3.3-1.2-4.9c-0.1-0.2-0.2-0.5-0.3-0.8
			c0,0.1,0,0.1,0,0.1c0,0.1,0,0.1,0.1,0.2c0.3,0.9,0.5,1.9,0.5,2.8c0.1,1.3,0,2.6-0.1,4c-0.1,1.3,0,2.5,0.3,3.7
			C45,24.1,45.2,24.5,45.6,24.9z M33.9,35.1c-0.1-0.1-0.1-0.1-0.1-0.1c-1-0.8-1.6-1.8-1.9-3c-0.2-0.6-0.2-1.3,0.1-1.9
			c0.2-0.4,0.5-0.7,1-0.7c0.1,0,0.1,0,0.2,0c-0.1-0.3-0.8-1.4-1-1.6c-0.4-0.3-0.8-0.3-1.1,0.2c-0.3,0.5-0.5,1-0.5,1.6
			c-0.1,1.2,0.3,2.3,0.9,3.4c0.5,0.9,1.2,1.6,2,2.1C33.5,35.2,33.6,35.3,33.9,35.1z M30.3,36.6c0.5-0.1,1,0,1.5,0.1
			c0.7,0.1,1.4,0.1,2.1-0.1c0.6-0.1,1.1-0.3,1.7-0.5c1.2-0.4,2.3-0.9,3.7-1c-0.3-0.1-0.4-0.1-0.6-0.1c-1.2-0.1-2.3-0.1-3.5,0.2
			c-0.7,0.2-1.4,0.4-2.1,0.7C32.1,36.1,31.2,36.3,30.3,36.6z M16.8,17.2c-0.3-0.1-0.5-0.1-0.8-0.2c-1.2-0.3-2.5-0.3-3.7-0.2
			c-0.9,0.1-1.7,0.2-2.6,0.2c-0.1,0-0.3,0-0.4,0c0,0,0,0.1,0,0.1c0.7,0.2,1.3,0.6,2,0.8c0.5,0.2,1.1,0.3,1.7,0.2
			c0.2,0,0.4-0.1,0.6-0.1C14.7,17.7,15.7,17.4,16.8,17.2z M33.5,24.9c-0.5,0-1.6,0.6-2.1,1.2c-0.6,0.6-0.9,1.3-0.9,2.2
			c0.6-1,1-1.2,2-0.5c0.1,0,0.1,0,0.2-0.1c0.4-0.4,0.6-1,0.4-1.6c-0.1-0.4-0.1-0.7,0.2-1.1C33.4,25,33.4,25,33.5,24.9z M33.4,29.6
			c0.8,0.3,1.4,0.8,2.2,1.2c-0.3-0.4-0.5-0.6-0.6-0.9c-0.2-0.3-0.3-0.7-0.4-1c-0.1-0.3-0.3-0.6-0.5-0.9c-0.2-0.3-0.4-0.4-0.8-0.3
			c-0.1,0.2-0.3,0.3-0.5,0.5C32.8,28.6,33.4,28.9,33.4,29.6z M34,26.5c-0.3,0.4-0.2,0.8,0.1,1.2c0.1,0.2,0.3,0.4,0.4,0.7
			c0.3-0.5,0-1.1,0.2-1.6C34.4,26.5,34.4,26.5,34,26.5z"/>
	</g>
	<g>
		<path class="st0" d="M45.1,39.5c0.7,0.3,1.4,0.5,2.1,0.7c1,0.3,1.9,0.4,2.9,0.6c1,0.1,2,0.2,3,0.3c0.6,0,1.1,0.1,1.7,0.1
			c0.8,0,1.5,0.1,2.3,0.2c0.5,0,1,0.1,1.4,0.1c0.8,0,1.6,0.1,2.3,0.2c1.7,0.2,3.4,0.6,5,1.1c2.2,0.7,4.3,1.5,6.3,2.7
			c0.4,0.3,0.9,0.5,1.3,0.9c-0.1,0.1-0.2-0.1-0.3-0.1c-2.9-1.9-6.1-3-9.4-3.9c-0.8-0.2-1.7-0.4-2.6-0.5c-0.7-0.1-1.4-0.1-2.1-0.2
			c-0.5-0.1-1.1-0.1-1.6-0.2c-0.1,0-0.1,0-0.2,0c-0.7,0-1.4-0.1-2-0.1c-1-0.1-2-0.1-3-0.2c-0.8-0.1-1.6-0.2-2.5-0.3
			c-1.5-0.2-3-0.6-4.3-1.2C45.3,39.7,45.2,39.7,45.1,39.5z"/>
		<path class="st0" d="M42.3,40.6c-0.1,0.1-0.3,0.1-0.3,0.2c0,0.4-0.3,0.7-0.5,1c-1.5,2.3-3.3,4.2-5.5,5.9c-2.4,1.9-5,3-7.9,3.7
			c-0.2,0.1-0.4,0.1-0.6,0.1c0,0-0.1,0-0.2,0c6.4-1.5,11.2-5.1,14.6-10.7c-0.7,0.2-1.4,0.3-2,0.3c-1.2,0-2.4-0.3-3.5-0.8
			c-0.3-0.1-0.5-0.3-0.8-0.4c-1.1-0.7-2.1-1.3-3.3-1.9c0,0-0.1-0.1-0.1-0.1c0.2-0.1,0.2,0,0.3,0.1c1.1,0.5,2.2,1.1,3.2,1.8
			c1.1,0.7,2.2,1.1,3.5,1.2c0.9,0.1,1.8,0.1,2.7-0.2C42,40.7,42.1,40.7,42.3,40.6z"/>
		<path class="st0" d="M47.2,36.3c0.2-0.1,0.3-0.3,0.5-0.4c1.6-1.5,2.9-3.2,4-5.1c1.1-2,2-4.2,2.9-6.4c0.5-1.4,1.1-2.8,1.7-4.2
			c0.5-1.2,1.2-2.3,2-3.3c0.1-0.1,0.2-0.2,0.3-0.3c0-0.1,0.1-0.1,0.1-0.2c0.1,0.2,0,0.2-0.1,0.3c-1,1.2-1.7,2.5-2.3,3.9
			c-0.7,1.7-1.3,3.5-2,5.2c-0.9,2.2-1.8,4.3-3.1,6.3c-0.9,1.5-2.1,2.9-3.5,4C47.5,36.1,47.4,36.3,47.2,36.3
			C47.2,36.4,47.2,36.3,47.2,36.3z"/>
		<path class="st0" d="M45.1,38.7c0.3,0,0.6,0,0.9,0c1.3-0.2,2.6-0.5,3.9-0.7c0.8-0.1,1.5-0.2,2.3-0.3c0.7-0.1,1.4-0.1,2.1-0.2
			c1.2,0,2.4,0.1,3.6,0.4c0.7,0.1,1.5,0.3,2.2,0.5c-0.3,0.1-0.5,0-0.7-0.1c-0.8-0.1-1.7-0.3-2.5-0.5c-0.8-0.1-1.6-0.2-2.4-0.2
			c-0.9,0-1.7,0.1-2.6,0.2c-0.9,0.1-1.8,0.3-2.8,0.4c-0.7,0.1-1.4,0.2-2.1,0.4c-0.6,0.1-1.2,0.2-1.9,0.2c-0.1,0-0.3,0-0.4,0
			c0.1-0.3,0.2-0.5,0.3-0.8c0.4-1.1,0.7-2.2,0.8-3.4c0.1-1.3,0.2-2.6,0.1-3.9c0-0.2,0-0.4,0-0.6c0.1,0.5,0.1,0.9,0.1,1.4
			c0,0.3,0,0.7,0,1c0,0.8,0,1.6-0.1,2.4c-0.1,0.7-0.2,1.4-0.4,2.1C45.6,37.6,45.4,38.2,45.1,38.7z"/>
		<path class="st0" d="M39.5,42.7c-0.3,0.5-0.8,0.9-1.3,1.3c-1.8,1.5-3.7,2.6-5.8,3.7c-2.1,1-4.2,1.8-6.3,2.7
			c-1.7,0.7-3.4,1.4-5.1,2c-0.1,0.1-0.3,0.1-0.6,0.1c0.8-0.3,1.5-0.6,2.2-0.9c3.1-1.3,6.2-2.5,9.2-3.9c2.1-1,4.2-2.1,6-3.6
			C38.4,43.6,38.9,43.2,39.5,42.7z"/>
		<path class="st0" d="M43.7,18.2c0.1,1,0.1,2,0,3c-0.1,1.5-0.5,2.9-1,4.4c-0.3,0.8-0.5,1.7-0.6,2.6c-0.1,1-0.1,2,0,3
			c0.1,1.9,0.6,3.7,1.3,5.5c0.1,0.1,0.2,0.2,0.1,0.4c-0.1-0.2-0.2-0.3-0.2-0.4c-0.6-1.4-1.1-2.8-1.3-4.2c-0.2-1.2-0.2-2.4-0.2-3.6
			c0.1-0.9,0.2-1.9,0.6-2.8c0.3-0.7,0.4-1.4,0.6-2.1c0.2-0.7,0.3-1.4,0.4-2.1c0.2-1.1,0.2-2.2,0.2-3.3
			C43.7,18.5,43.7,18.3,43.7,18.2z"/>
		<path class="st0" d="M32.7,46.2c-0.2,0.1-0.4,0.2-0.6,0.3c-3,1.6-6.1,3-9.2,4.4c-1.8,0.8-3.5,1.6-5.3,2.5c-1.1,0.6-2.2,1.3-3.3,2
			c-0.1,0.1-0.3,0.2-0.4,0.2c0.2-0.1,0.3-0.2,0.5-0.4c1.8-1.3,3.7-2.4,5.7-3.3c2.7-1.3,5.4-2.5,8.1-3.7c1.3-0.6,2.7-1.3,4-1.9
			C32.4,46.3,32.5,46.2,32.7,46.2z"/>
		<path class="st0" d="M54.1,22.1c0.3-0.9,0.7-1.7,1.2-2.4c1.1-2,2.4-3.9,3.9-5.6c1.3-1.5,2.7-2.8,4.3-4C64,9.8,64.5,9.5,65,9.4
			C60.2,12.6,56.8,17,54.1,22.1z"/>
		<path class="st0" d="M52.2,38.7c1-0.1,1.9-0.1,2.9-0.2c1.4,0,2.7,0.2,4.1,0.4c1.5,0.3,2.9,0.6,4.3,1.1c1.9,0.6,3.6,1.4,5.2,2.6
			c0,0,0.1,0.1,0.1,0.1c-0.5-0.2-1-0.6-1.5-0.8c-0.5-0.3-1-0.5-1.6-0.8c-0.5-0.2-1-0.4-1.6-0.6c-0.5-0.2-1.1-0.4-1.7-0.5
			c-0.6-0.2-1.1-0.3-1.7-0.4c-0.6-0.1-1.1-0.3-1.7-0.4c-0.6-0.1-1.1-0.2-1.7-0.3c-0.6-0.1-1.1-0.2-1.7-0.2c-0.6,0-1.2,0-1.7,0
			C53.4,38.7,52.8,38.7,52.2,38.7z"/>
		<path class="st0" d="M55.3,40.8c0.1-0.1,0.3,0,0.4,0c0.9,0.1,1.8,0.1,2.6,0.2c1.9,0.2,3.9,0.4,5.8,0.9c1.7,0.4,3.3,0.9,4.8,1.6
			c0.9,0.4,1.8,0.9,2.6,1.5c0.1,0.1,0.2,0.1,0.3,0.3c0,0,0,0-0.1,0c-1.4-1-3-1.6-4.6-2.2c-1.2-0.5-2.6-0.8-3.8-1
			c-0.8-0.2-1.7-0.4-2.6-0.5c-0.6-0.1-1.2-0.1-1.8-0.2c-0.4,0-0.9-0.1-1.3-0.1c-0.4,0-0.9-0.1-1.3-0.1C56,40.9,55.7,40.9,55.3,40.8z
			"/>
		<path class="st0" d="M22.1,9.5c0.2,0.2,0.2,0.5,0.3,0.7c1,3.6,2.8,6.9,5.3,9.8c0.8,0.9,1.6,1.8,2.4,2.7c0,0,0,0.1,0.1,0.1
			c-0.9-0.5-3.9-4-5.2-6C23.6,14.5,22.7,12,22.1,9.5z"/>
		<path class="st0" d="M25.7,45.7c0,0.1-0.1,0.1-0.2,0.2c-1.8,1.2-3.4,2.6-5,4.1c-1.7,1.6-3.6,3.1-5.6,4.4c-0.6,0.4-1.1,0.7-1.6,1.2
			c-0.1-0.1,0-0.2,0.1-0.2c0.3-0.3,0.6-0.5,0.9-0.8c1.3-0.9,2.7-1.9,3.9-2.9c0.8-0.7,1.6-1.4,2.4-2.1c1.5-1.4,3.1-2.6,4.7-3.7
			C25.5,45.8,25.6,45.7,25.7,45.7C25.7,45.6,25.7,45.7,25.7,45.7z"/>
		<path class="st0" d="M43.7,40c0.2,0,0.4,0.1,0.5,0.2c1.6,0.9,3.3,1.7,5.1,2.1c0.8,0.2,1.6,0.3,2.4,0.4c0.6,0.1,1.2,0.2,1.9,0.2
			c0.3,0,0.7,0.1,1,0.1c0.9,0,1.9,0.2,2.8,0.1c0.4,0,0.9,0,1.4,0c-1.4,0.2-2.7,0.2-4.1,0.1c-0.8,0-1.6-0.1-2.4-0.2
			c-1-0.1-2-0.2-2.9-0.5c-1.9-0.4-3.6-1.2-5.2-2.2C43.9,40.2,43.8,40.2,43.7,40z"/>
		<path class="st0" d="M19,51.9c0.1-0.1,0.2-0.2,0.2-0.2c2.9-2.5,6.1-4.5,9.6-6c1.2-0.5,2.5-0.9,3.7-1.2c0,0,0.1,0,0.1,0
			c-0.3,0.1-0.6,0.2-0.9,0.3c-0.3,0.1-0.6,0.2-0.9,0.3c-1.7,0.6-3.4,1.4-5,2.2c-2.4,1.3-4.5,2.8-6.7,4.5
			C19.3,51.8,19.2,51.8,19,51.9C19.1,51.9,19.1,51.9,19,51.9z"/>
		<path class="st0" d="M16,19.5c0.3,0.2,0.5,0.4,0.8,0.6c1.1,0.8,2.3,1.4,3.4,2c1.9,1.1,3.7,2.2,5.4,3.5c0.8,0.6,1.5,1.2,2.2,1.8
			c0.1,0.1,0.2,0.2,0.3,0.3c-0.1,0.1-0.2,0-0.2-0.1c-2.7-2.3-5.7-4.2-8.7-5.9c-1-0.5-1.9-1.1-2.8-1.8C16.3,19.9,16.1,19.7,16,19.5z"
			/>
		<path class="st0" d="M48.3,33.4c0-0.2,0.1-0.4,0.2-0.6c0.4-0.9,0.5-1.9,0.5-2.9c0-1-0.1-1.9-0.3-2.9c-0.1-0.9-0.2-1.8-0.3-2.8
			c-0.1-0.9,0-1.7,0-2.6c0.1-1.4,0.3-2.7,0.6-4c0-0.1,0.1-0.2,0.2-0.3c-0.1,0.3-0.1,0.5-0.2,0.8c-0.2,0.9-0.3,1.9-0.4,2.8
			c-0.1,1.2-0.1,2.4-0.1,3.7c0,0.5,0.1,1.1,0.2,1.6c0.1,0.6,0.2,1.2,0.3,1.9c0.1,0.7,0.1,1.4,0.1,2.1C49.1,31.3,48.8,32.3,48.3,33.4
			z"/>
		<path class="st0" d="M21.3,43.9c1.5-0.2,3-0.2,4.4-0.2c0.8,0,1.6,0.1,2.4,0.2c0,0,0.1,0,0.1,0c0.8,0,1.5,0.1,2.3,0.1
			c0.5,0,1,0.1,1.5,0.1c1.5,0,3-0.1,4.4-0.5c0.1,0,0.1,0,0.2,0c0,0,0.1,0,0.2,0c-0.3,0.2-0.6,0.2-0.9,0.3c-0.3,0.1-0.6,0.2-0.9,0.2
			c-1.2,0.2-2.4,0.3-3.7,0.2c-1.1,0-2.2-0.1-3.3-0.2c-1.6-0.2-3.1-0.2-4.7-0.2c-0.6,0-1.2,0.1-1.7,0.1
			C21.4,43.9,21.3,43.9,21.3,43.9z"/>
		<path class="st0" d="M33.7,10.3c0,0.7,0.1,1.4,0.1,2.2c0.1,0.7,0.1,1.5,0.2,2.2c0.2,1.6,0.5,3.1,0.9,4.6c0.4,1.6,0.9,3.2,1.7,4.7
			c0,0.1,0.1,0.1,0,0.3c-0.1-0.1-0.2-0.2-0.2-0.3c-0.5-0.9-0.9-1.8-1.2-2.8c-0.5-1.5-0.9-3-1.1-4.5c-0.2-1-0.3-2-0.4-2.9
			C33.7,12.6,33.6,11.5,33.7,10.3z"/>
		<path class="st0" d="M33.3,23c-0.9-2.2-2.1-4.2-3.3-6.3c-1.2-2-2.7-3.8-4.2-5.7c0.3,0.2,1.8,1.8,3.1,3.6c1,1.3,1.8,2.6,2.6,4
			C32.2,20.1,32.8,21.5,33.3,23z"/>
		<path class="st0" d="M43.9,25c0.2,0.4,0.3,0.9,0.4,1.3c0.2,0.8,0.3,1.7,0.4,2.5c0.1,1.2,0.2,2.4,0.2,3.6c0,1.8-0.1,3.6-0.1,5.4
			c-0.1-0.6-0.2-1.1-0.1-1.7c0-0.8,0-1.7,0-2.5c0-0.5,0.1-0.9,0-1.3c0-1,0-2-0.1-3c-0.1-0.8-0.2-1.7-0.3-2.5c-0.1-0.5-0.2-1-0.3-1.5
			C43.9,25.3,43.9,25.2,43.9,25z"/>
		<path class="st0" d="M42.2,16.3c0,0.3,0,0.6,0,0.8c-0.1,0.9-0.1,1.9-0.2,2.8c-0.2,1.3-0.4,2.6-0.6,3.9c-0.1,0.6-0.1,1.2-0.2,1.8
			c-0.1,1.2-0.1,2.5-0.1,3.7c0,0.1,0,0.2,0,0.3c-0.2-1.3-0.2-2.5-0.1-3.8c0.1-1.2,0.2-2.3,0.5-3.4c0.2-0.8,0.2-1.6,0.4-2.4
			c0.1-0.6,0.2-1.3,0.2-1.9c0-0.4,0-0.8,0-1.2C42.1,16.7,42.1,16.5,42.2,16.3z"/>
		<path class="st0" d="M41.6,13.9c-0.1,0.7-0.2,1.3-0.4,2c-0.3,1.1-0.6,2.2-0.8,3.3c-0.1,0.8-0.3,1.6-0.3,2.5c0,0.4-0.1,0.7-0.1,1.1
			c0,1.1,0.1,2.1,0.2,3.2c0,0.1,0,0.2,0,0.3c-0.1-0.5-0.2-1-0.2-1.6c-0.1-0.6-0.1-1.2-0.1-1.7c0-1.9,0.2-3.7,0.7-5.5
			c0.3-1.1,0.6-2.2,0.8-3.3C41.5,14,41.5,13.9,41.6,13.9z"/>
		<path class="st0" d="M23.7,39.8c-0.6,0-1.1-0.1-1.6-0.2c-2.3-0.4-4.4-1.3-6.5-2.4c-1.5-0.8-3-1.5-4.6-2c-0.1,0-0.1,0-0.2-0.1
			c0.2-0.1,0.3,0,0.4,0c1.6,0.4,3.1,1.1,4.5,1.9c1.6,0.9,3.3,1.6,5.1,2.1C21.7,39.5,22.7,39.7,23.7,39.8z"/>
		<path class="st0" d="M27.7,28.8c-0.1,0.1-0.2,0-0.2,0c-2.3-1.2-4.5-2.4-6.6-3.8c-1.1-0.7-2.1-1.6-3-2.5c-0.1-0.1-0.2-0.2-0.2-0.3
			c0,0,0-0.1-0.1-0.2c0.2,0.1,0.3,0.2,0.4,0.3c1.7,1.6,3.7,2.9,5.7,4.1c1.3,0.7,2.6,1.5,3.9,2.3C27.6,28.7,27.7,28.8,27.7,28.8z"/>
		<path class="st0" d="M32.4,23.9c-0.3-0.2-0.4-0.4-0.6-0.7c-1-1.2-2-2.4-3.1-3.6c-1.3-1.4-2.4-2.9-3.5-4.5
			c-0.1-0.1-0.1-0.2-0.2-0.3c0,0,0-0.1,0-0.1c0.1,0.1,0.2,0.2,0.2,0.2c1,1.4,2.1,2.8,3.2,4c1.2,1.4,2.5,2.7,3.6,4.2
			C32.1,23.5,32.3,23.7,32.4,23.9z"/>
		<path class="st0" d="M42.4,24.5c0-0.4,0.1-0.8,0.2-1.2c0.1-0.9,0.3-1.7,0.4-2.6c0.2-1.5,0.2-2.9,0.1-4.4c0-1.1-0.1-2.2-0.3-3.2
			c-0.1-0.6-0.2-1.3-0.3-1.9c0-0.1,0-0.1,0-0.3c0.2,0.6,0.2,1.1,0.3,1.6c0.1,0.7,0.2,1.5,0.3,2.2c0.1,0.4,0.1,0.8,0.1,1.2
			c0.1,1.3,0.1,2.6,0,3.9c-0.1,0.9-0.2,1.7-0.4,2.6C42.7,23.1,42.6,23.8,42.4,24.5z"/>
		<path class="st0" d="M18.9,21.2c2.8,1.2,5.3,2.7,7.7,4.6c1,0.8,1.9,1.6,2.7,2.5c0.3,0.4,0.7,0.8,1,1.2c-0.2-0.1-0.2-0.1-0.3-0.2
			c-1.2-1.5-2.6-2.7-4.1-3.8c-2.1-1.5-4.3-2.9-6.6-4C19.2,21.4,19.1,21.3,18.9,21.2C18.9,21.2,18.9,21.2,18.9,21.2z"/>
		<path class="st0" d="M47,25.5c-0.3-2.1-0.1-4.2,0.6-6.3c0.5-1.5,1.1-3,2-4.3c0.1,0.1,0,0.2,0,0.3c-1.1,2-1.9,4.1-2.3,6.3
			C47,22.1,47,22.8,47,23.4C46.9,24.1,47,24.8,47,25.5z"/>
		<path class="st0" d="M15,18.1c0.4-0.1,0.8,0.1,1.1,0.2c0.7,0.3,1.3,0.6,1.9,0.9c0.2,0.1,0.5,0.2,0.7,0.3c1.6,0.6,3.1,1.3,4.5,2.2
			c1.3,0.9,2.5,1.8,3.6,2.8c0.1,0.1,0.1,0.1,0.2,0.2c-0.1,0-0.2-0.1-0.3-0.1c-0.9-0.6-1.7-1.3-2.6-1.9c-1.5-1.2-3.2-2-5-2.8
			c-0.4-0.2-0.8-0.3-1.2-0.5c0,0-0.1,0-0.1,0c0-0.3-0.3-0.3-0.5-0.4c-0.6-0.3-1.2-0.6-1.8-0.8C15.4,18.2,15.2,18.1,15,18.1z"/>
		<path class="st0" d="M35,44.3c-1.3,0.5-2.7,0.9-4,1.4c-1.3,0.5-2.6,1.1-3.8,1.7c-1.3,0.6-2.4,1.4-3.7,2c2.7-1.8,5.5-3.2,8.5-4.3
			C33,44.7,34,44.4,35,44.3z"/>
		<path class="st0" d="M52.9,29.8c-0.2,0.6-0.5,1.1-0.7,1.7c-0.9,1.6-1.9,3-3.2,4.3c-0.6,0.6-1.2,1.1-2,1.5
			c-0.3,0.2-0.7,0.3-1.1,0.4c0-0.2,0.1-0.2,0.2-0.2c1.3-0.6,2.4-1.5,3.3-2.6c1.3-1.5,2.4-3.2,3.3-4.9C52.9,30,52.9,29.9,52.9,29.8z"
			/>
		<path class="st0" d="M31.9,21c-0.8-1.1-1.4-2.3-2.2-3.4c-0.8-1.1-1.6-2.2-2.4-3.3c-0.8-1.1-1.7-2.1-2.4-3.3c0-0.1,0.1-0.1,0.1,0
			c1,1.4,2.1,2.7,3.2,4c1.4,1.8,2.7,3.7,3.7,5.7C31.8,20.7,31.9,20.8,31.9,21C31.9,20.9,31.9,21,31.9,21z"/>
		<path class="st0" d="M34.5,21.8c-0.3-0.5-0.4-0.9-0.6-1.4c-0.5-1.3-1-2.6-1.3-3.9c-0.2-0.7-0.3-1.4-0.3-2.1c0-0.4-0.1-0.7-0.1-1.1
			c0-0.8,0.1-1.5,0.4-2.3c0.1,0.4-0.1,0.7-0.1,1.1c0,0.1,0,0.2,0,0.3c0,1-0.1,1.9,0.1,2.9c0.2,1,0.4,2,0.7,2.9
			c0.4,1.1,0.7,2.1,1.1,3.2C34.5,21.4,34.6,21.6,34.5,21.8z"/>
		<path class="st0" d="M31.9,35.7c-2.2-0.8-4.5-1.5-6.5-2.6c-0.8-0.5-1.6-0.9-2.4-1.5c-0.2-0.2-0.4-0.3-0.6-0.5c0-0.1,0.1-0.1,0.1,0
			c1.1,0.9,2.3,1.5,3.6,2.2c1.3,0.7,2.8,1.2,4.1,1.7C30.9,35.2,31.4,35.4,31.9,35.7z"/>
		<path class="st0" d="M37.6,24.5c-0.1-1.9-0.4-3.8-0.7-5.7c-0.3-1.9-0.9-3.7-1.4-5.6c0.1,0.2,0.2,0.4,0.3,0.6
			c0.1,0.2,0.1,0.4,0.2,0.6c0.4,1.4,0.8,2.7,1,4.1c0.2,0.9,0.3,1.8,0.4,2.7c0.1,0.7,0.2,1.3,0.2,2C37.7,23.8,37.7,24.2,37.6,24.5
			C37.7,24.5,37.6,24.5,37.6,24.5z"/>
		<path class="st0" d="M49.9,31.6c1.1-2.4,1.8-5,2.7-7.4c0.4-1.2,0.9-2.4,1.5-3.5c0.1-0.2,0.2-0.4,0.4-0.6c0,0.1,0,0.1,0,0.1
			c-0.9,1.5-1.4,3.2-2,4.8c-0.6,1.7-1.1,3.3-1.7,5C50.5,30.5,50.2,31.1,49.9,31.6z"/>
		<path class="st0" d="M16.5,33.2c-0.5-0.1-0.9-0.3-1.3-0.6c-1.4-0.7-2.7-1.5-3.9-2.5c-1.3-1-2.7-2.1-4.1-3.1c0.2,0,0.3,0.1,0.5,0.2
			c0.8,0.6,1.6,1.1,2.3,1.7c0.9,0.6,1.7,1.3,2.6,1.9C13.9,31.8,15.2,32.5,16.5,33.2z"/>
		<path class="st0" d="M45.2,24.8c0.2,0.2,0.4,0.5,0.5,0.7c0.6,1.2,1,2.4,1.2,3.7c0.1,0.7,0.2,1.4,0.2,2c-0.1,1.1-0.1,2.2-0.3,3.3
			c0,0.2-0.1,0.3-0.1,0.5c-0.1-0.1-0.1-0.2,0-0.2c0.1-0.4,0-0.9,0.1-1.3c0.1-0.8,0.1-1.5,0.1-2.3c0-1.4-0.2-2.8-0.6-4.1
			c-0.2-0.7-0.5-1.3-0.8-2C45.2,25,45.2,25,45.2,24.8z"/>
		<path class="st0" d="M14,26.8c0.3,0.3,0.6,0.7,0.9,1c0.8,1,1.6,2.1,2.5,3.1c0.9,1.1,2,2,3.2,2.7c0.2,0.1,0.5,0.2,0.7,0.4
			c-0.3,0-0.5-0.1-0.8-0.2c-1.5-0.7-2.8-1.7-3.8-3.1c-0.9-1.3-1.8-2.5-2.8-3.7C14,26.9,14,26.9,14,26.8z"/>
		<path class="st0" d="M29,43.4c0.7,0,1.5,0,2.2,0c0.9,0,1.9,0,2.8-0.1c1.2-0.1,2.4-0.4,3.5-0.7c0.8-0.2,1.6-0.5,2.3-1
			c0.1-0.1,0.2-0.1,0.3-0.2c0,0.1-0.1,0.2-0.2,0.2c-0.6,0.4-1.3,0.8-2,1c-1,0.3-2.1,0.6-3.2,0.7c-1.5,0.2-3,0.2-4.5,0.1
			C29.8,43.5,29.4,43.4,29,43.4z"/>
		<path class="st0" d="M25.5,42.8c0.6-0.1,1.2-0.3,1.8-0.4c1-0.1,1.9-0.2,2.9-0.2c0.8,0,1.6,0,2.4,0.1c0.6,0.1,1.2,0.1,1.8,0.1
			c0.6,0,1.2,0,1.7-0.1c0.2,0,0.5,0,0.7,0c-0.5,0.1-1.1,0.2-1.6,0.2c-0.7,0-1.4,0-2,0c-0.6,0-1.2-0.1-1.8-0.1c-0.3,0-0.6,0-1,0
			c-1.4,0-2.9,0.1-4.3,0.3C26,42.8,25.7,42.8,25.5,42.8z"/>
		<path class="st0" d="M9.4,19.7c1.1,1,2.1,2.1,3.3,3c1.2,0.9,2.4,1.7,3.7,2.5c-0.2,0-0.3-0.1-0.4-0.1c-2.4-1.2-4.4-2.8-6.2-4.7
			C9.7,20.1,9.5,20,9.4,19.7C9.4,19.7,9.4,19.7,9.4,19.7z"/>
		<path class="st0" d="M10.3,28.4c0.3,0.1,0.5,0.2,0.7,0.3c1.8,1.1,3.6,2.2,5.4,3.4c0.8,0.5,1.5,1,2.3,1.5c0.2,0.1,0.4,0.2,0.7,0.4
			c-0.3,0-0.4-0.1-0.6-0.2c-1.1-0.6-2.1-1.2-3.2-1.9C13.9,30.6,12.1,29.5,10.3,28.4z"/>
		<path class="st0" d="M33.7,8.6c0.1,0.2,0.2,0.4,0.2,0.6c0.6,3.2,1.1,6.5,1.7,9.7c0,0.1,0,0.2,0,0.3C34.8,15.7,34.3,12.1,33.7,8.6z
			"/>
		<path class="st0" d="M24.6,17.8c0.2,0.3,0.3,0.5,0.5,0.7c1.1,1.5,2.3,2.7,3.7,3.9c1,0.8,2,1.6,3.1,2.3c0.2,0.1,0.4,0.2,0.5,0.4
			c-0.2,0.1-0.3,0-0.3-0.1c-0.5-0.4-1-0.8-1.6-1.2c-1.1-0.8-2.1-1.6-3.1-2.4c-1-1-1.9-2-2.7-3.2C24.7,18.1,24.6,18.1,24.6,17.8z"/>
		<path class="st0" d="M26.8,44.6c-1.5,0.8-2.9,1.6-4.2,2.6c-1.3,1-2.5,2.1-3.8,3.2c0.4-0.5,2.6-2.6,3.7-3.3
			C24.3,45.8,26.1,44.8,26.8,44.6z"/>
		<path class="st0" d="M41.4,3.7c-0.1,0.5-0.2,1-0.3,1.4c-0.2,0.9-0.3,1.8-0.3,2.7c-0.1,1.1,0,2.2-0.1,3.3c0,0.8-0.1,1.6-0.3,2.4
			c0,0.2-0.1,0.4-0.2,0.5c-0.1-0.2,0-0.3,0.1-0.4c0.1-0.6,0.1-1.2,0.2-1.8c0.1-1.1,0-2.3,0.1-3.4C40.6,6.8,40.8,5.2,41.4,3.7z"/>
		<path class="st0" d="M24.3,27.8c-1.3-0.6-2.5-1.3-3.7-2.1c-1.2-0.8-2.2-1.8-3.1-2.9c-0.1-0.1-0.2-0.2-0.2-0.4
			c0.2,0.1,0.2,0.2,0.3,0.3c0.7,0.8,1.4,1.5,2.2,2.2c0.6,0.5,1.3,1,2,1.4C22.6,26.7,23.5,27.2,24.3,27.8z"/>
		<path class="st0" d="M33.8,47.8c-1.6,1.3-8.3,4.1-10.1,4.2c1.8-0.5,3.5-1.2,5.2-1.8C30.6,49.6,32.3,48.8,33.8,47.8z"/>
		<path class="st0" d="M22.7,21.1c0.1,0,0.1,0,0.2,0c2.1,1.1,4.1,2.5,5.9,4.2c0.6,0.6,1.2,1.4,1.7,2.1c0,0,0.1,0.1,0,0.2
			c-0.1-0.1-0.3-0.3-0.4-0.4c-1.1-1.6-2.6-2.8-4.1-3.9c-1-0.7-2-1.4-3.1-2C22.7,21.1,22.7,21.1,22.7,21.1z"/>
		<path class="st0" d="M22.7,8.8c0.8,1.6,1.7,3.1,2.7,4.6c1,1.5,2.1,2.8,3.1,4.3c-0.5-0.4-2.4-2.8-3.3-4.2
			C24.2,11.8,23,9.7,22.7,8.8z"/>
		<path class="st0" d="M43.7,26.4c0.2,0.2,0.2,0.4,0.2,0.5c0.1,0.7,0.2,1.4,0.2,2.1c0.1,1.4,0,2.9,0.1,4.3c0,0.9,0.1,1.7,0.1,2.6
			c0,0.1,0,0.2,0,0.3c0-0.5-0.1-1.1-0.1-1.6c-0.1-1.4,0-2.8-0.1-4.2c0-1-0.1-2-0.2-3C43.7,27.1,43.7,26.7,43.7,26.4z"/>
		<path class="st0" d="M49.6,37.4c0.8-0.3,1.5-0.5,2.3-0.6c0.6-0.1,1.1-0.2,1.7-0.2c0.1,0,0.2,0,0.3,0c1,0,2-0.1,3,0
			c0.4,0,0.8,0.1,1.2,0.2c0.7,0.1,1.5,0.3,2.1,0.5c0.3,0.1,0.7,0.2,1,0.5c-0.1,0.1-0.2,0-0.3-0.1c-0.9-0.4-1.8-0.6-2.8-0.8
			c-0.7-0.1-1.3-0.2-2-0.2c-0.9,0-1.8,0-2.7,0.1c-1.2,0.1-2.5,0.3-3.7,0.6C49.8,37.4,49.7,37.4,49.6,37.4z"/>
		<path class="st0" d="M19,24.9c-2.4-2.3-5.1-4.1-8-5.8c0.1-0.1,0.1,0,0.2,0c2.1,1.2,4.2,2.5,6.1,4.1C17.9,23.6,18.5,24.2,19,24.9z"
			/>
		<path class="st0" d="M42.1,2c0,0.2,0.1,0.4,0.1,0.6c0.1,0.9,0.1,1.8,0.1,2.7c0,0.8-0.1,1.6-0.1,2.4c0,0.4-0.1,0.9-0.1,1.3
			c0,0.4-0.1,0.9-0.2,1.3c0-1.4,0.2-2.8,0.2-4.2C42.1,4.8,42.2,3.4,42.1,2z"/>
		<path class="st0" d="M52.5,33.2c0.8-1.1,1.7-2.3,2.2-3.6c0.6-1.3,1.1-2.6,1.5-4c0.1,0.5-0.2,1.6-0.7,2.8c-0.3,0.9-0.7,1.7-1.2,2.5
			C53.7,31.9,53,32.8,52.5,33.2z"/>
		<path class="st0" d="M33.7,29.8c1,1.1,2,2.1,3.3,3c1.2,0.8,2.5,1.4,3.8,2.1c-1.3-0.4-2.4-1-3.6-1.8C35.8,32.2,34.6,31.1,33.7,29.8
			z"/>
		<path class="st0" d="M28.2,39.3c-0.2,0.1-0.5,0.1-0.7,0.1c-0.3,0-0.7,0-1,0c-0.8,0-1.6-0.2-2.3-0.3c-1.6-0.4-3.2-1.1-4.6-1.8
			c-0.1,0-0.1-0.1-0.2-0.1c0.1,0,0.2,0.1,0.3,0.1c1.3,0.6,2.6,1.2,4,1.6c1.4,0.4,2.7,0.6,4.1,0.5c0.1,0,0.2,0,0.3,0
			C28.1,39.3,28.2,39.3,28.2,39.3z"/>
		<path class="st0" d="M41,39.7c-0.4,0.1-0.8,0-1.1-0.1c-1-0.3-2-0.8-2.9-1.3c-0.6-0.4-1.3-0.7-1.9-1.1c-0.3-0.2-0.7-0.3-1.1-0.5
			c0.3-0.1,0.5,0,0.7,0.1c0.7,0.2,1.2,0.6,1.8,0.9c0.4,0.2,0.9,0.5,1.3,0.7c0.8,0.5,1.6,0.8,2.5,1.1C40.5,39.7,40.8,39.7,41,39.7z"
			/>
		<path class="st0" d="M29.6,14.5c-0.9-1.3-1.7-2.7-2.7-3.9c-1-1.2-2.1-2.3-3.3-3.4c0.1-0.1,0.2,0.1,0.3,0.1
			c1.5,1.2,2.8,2.5,3.9,4.1c0.6,0.8,1.2,1.7,1.7,2.6C29.4,14.2,29.5,14.3,29.6,14.5z"/>
		<path class="st0" d="M37.2,17.3c-0.4-1.4-0.6-2.8-1-4.1c-0.4-1.4-1-2.7-1.4-4C35.6,9.8,37.3,15.6,37.2,17.3z"/>
		<path class="st0" d="M34,25.5c0.4-0.3,0.9-0.4,1.4-0.5c0.8-0.1,1.5,0.1,2.2,0.5c1.5,0.9,2.6,2.2,3.2,3.9c0,0,0,0.1,0,0.1
			c-0.1-0.2-0.2-0.4-0.3-0.5c-0.6-1.2-1.4-2.2-2.4-3c-0.5-0.4-1-0.7-1.7-0.8c-0.7-0.2-1.4-0.1-2.1,0.2C34.3,25.5,34.2,25.6,34,25.5z
			"/>
		<path class="st0" d="M35.4,38.9c0.2,0,0.4,0.1,0.5,0.2c0.8,0.4,1.7,0.8,2.6,1c0.5,0.1,1,0.2,1.5,0.2c0.2,0,0.5,0.1,0.7,0.1
			c0.7,0,1.3-0.1,1.9-0.3c0.2-0.1,0.3-0.2,0.6-0.1c-0.5,0.3-1,0.4-1.4,0.5c-1.9,0.3-3.7-0.1-5.3-1C36.1,39.4,35.8,39.2,35.4,38.9z"
			/>
		<path class="st0" d="M22.5,12c0.6,2.1,1.5,3.9,2.7,5.6c0.4,0.6,0.8,1.2,1.3,1.8c0.1,0.1,0.2,0.3,0.3,0.4c-0.1,0-0.1,0-0.2-0.1
			c-0.9-1.2-1.8-2.4-2.6-3.6c-0.7-1.1-1.1-2.4-1.5-3.6C22.4,12.3,22.4,12.2,22.5,12z"/>
		<path class="st0" d="M20.6,27c-2.1-2-4.4-3.8-6.8-5.5c0.1-0.1,0.1,0,0.2,0c2.4,1.5,4.6,3.2,6.5,5.3C20.5,26.9,20.6,26.9,20.6,27z"
			/>
		<path class="st0" d="M34.9,27.3c0.2-0.2,0.4-0.1,0.5-0.1c0.7,0.2,1.3,0.5,1.9,1c0.6,0.5,1.1,1,1.5,1.6c0.5,0.7,0.9,1.4,1.3,2.2
			c0,0.1,0.1,0.2,0.1,0.3c-0.1,0-0.2-0.1-0.2-0.2c-0.5-0.9-1.1-1.8-1.7-2.6c-0.5-0.6-1-1.1-1.6-1.5C36.3,27.6,35.7,27.3,34.9,27.3z"
			/>
		<path class="st0" d="M19.7,31.8c-0.2-0.2-0.5-0.4-0.7-0.6c-0.9-0.8-1.8-1.7-2.5-2.7c-0.4-0.6-0.9-1.1-1.5-1.6
			c-0.1-0.1-0.1-0.1-0.2-0.2c0,0,0,0,0-0.1c0.4,0.2,0.6,0.5,0.9,0.7c0.6,0.5,1,1.2,1.5,1.8c0.6,0.8,1.3,1.5,2,2.1
			C19.3,31.3,19.5,31.5,19.7,31.8C19.7,31.7,19.7,31.7,19.7,31.8z"/>
		<path class="st0" d="M29.8,41c0.5-0.1,0.9,0,1.4,0.1c0.8,0.1,1.5,0.2,2.3,0.3c0.7,0.1,1.4,0.2,2.2,0.2c0.6,0,1.1-0.1,1.7-0.1
			c0.2,0,0.3,0,0.5,0c-0.4,0.1-0.8,0.2-1.2,0.2c-0.5,0-0.9,0.1-1.4,0.1c-0.8,0-1.6-0.1-2.4-0.2c-0.9-0.1-1.9-0.4-2.8-0.4
			C30,41.2,29.9,41.2,29.8,41z"/>
		<path class="st0" d="M39.6,25c-0.5-2.3-0.4-4.6,0.5-6.8c-0.2,1.1-0.5,2.2-0.5,3.4C39.5,22.7,39.5,23.8,39.6,25z"/>
		<path class="st0" d="M28.7,12.2c1.7,2,3,4.3,3.8,6.9C31.5,16.7,30.2,14.4,28.7,12.2z"/>
		<path class="st0" d="M24.8,33.8c-1.3-0.2-4.4-2.5-6.2-4.5c0.1-0.1,0.2,0,0.2,0.1c0.6,0.5,1.2,1,1.8,1.6c1.2,1.1,2.5,1.9,4,2.7
			C24.6,33.7,24.7,33.8,24.8,33.8z"/>
		<path class="st0" d="M68,9.2c-2.2,0.8-4,2.3-5.6,3.8c0.3-0.5,1.5-1.6,2.5-2.4C65.9,9.9,67.4,9.2,68,9.2z"/>
		<path class="st0" d="M14.1,35.4c0.2,0,0.3,0.1,0.5,0.2c0.9,0.4,1.7,0.9,2.5,1.4c1.1,0.6,2.2,1.1,3.3,1.6c0.2,0.1,0.3,0.1,0.4,0.2
			C18.4,38.1,16.3,36.6,14.1,35.4z"/>
		<path class="st0" d="M43.3,39.7c-2.4,0-4.4-1-6.2-2.4c1,0.5,1.9,1.1,2.9,1.6C41.1,39.2,42.2,39.4,43.3,39.7z"/>
		<path class="st0" d="M30.6,26.7c-1.3-1.8-2.9-3.3-4.9-4.5c0.5,0.1,1.8,0.9,2.8,1.9C29.5,24.8,30.4,26,30.6,26.7z"/>
		<path class="st0" d="M37.1,24.5c0-0.2,0-0.3,0-0.4c0-0.7-0.1-1.4-0.2-2c-0.2-1.3-0.5-2.5-0.8-3.8c-0.1-0.4-0.2-0.9-0.3-1.3
			c0-0.1-0.1-0.2,0-0.3c0.3,1,0.5,2,0.7,2.9c0.2,1,0.4,2,0.6,3.1c0.1,0.5,0.1,0.9,0.1,1.4C37.2,24.2,37.3,24.3,37.1,24.5z"/>
		<path class="st0" d="M9,18.8c1.6,1.6,3.4,3,5.3,4.3c-0.4-0.1-1.2-0.7-2.8-1.9C10.5,20.5,9.7,19.7,9,18.8z"/>
		<path class="st0" d="M30.1,19.5c1.3,1.3,3.2,4.6,3.2,5.3c-0.3-0.5-0.5-1-0.7-1.4c-0.3-0.5-0.5-0.9-0.8-1.4
			c-0.3-0.4-0.5-0.9-0.8-1.3C30.7,20.4,30.4,19.9,30.1,19.5z"/>
		<path class="st0" d="M48.3,26.4c0.5,2.4,0.6,4.8-0.6,7.2c0-0.2,0.1-0.4,0.1-0.5c0.2-0.5,0.3-1.1,0.5-1.6c0.2-0.7,0.2-1.5,0.2-2.2
			c0-0.8,0-1.6-0.2-2.4C48.3,26.7,48.3,26.5,48.3,26.4z"/>
		<path class="st0" d="M11.2,27.7c-1.6-0.2-5.2-1.8-5.8-2.6C7.2,26.3,9.2,26.9,11.2,27.7z"/>
		<path class="st0" d="M24.1,36.6c1.8,1.2,3.7,2,5.8,2.6c-0.3,0.1-0.5,0-0.7-0.1c-1.7-0.4-3.4-1.1-4.8-2.2
			C24.3,36.8,24.2,36.7,24.1,36.6z"/>
		<path class="st0" d="M44.9,39.1c2.2,0.6,4.5,0.6,6.7,0.8c-0.5,0-0.9,0-1.4,0c-0.5,0-0.9,0-1.4-0.1c-0.5-0.1-1,0-1.5-0.1
			c-0.7-0.1-1.5-0.2-2.2-0.4C45,39.2,44.9,39.2,44.9,39.1z"/>
		<path class="st0" d="M19.7,27.1c-1.2-0.1-5.2-1.9-6.2-2.9c1,0.6,2,1.1,3,1.6C17.6,26.3,18.7,26.7,19.7,27.1z"/>
		<path class="st0" d="M32.3,35c-1.9-1-3.8-2-5.8-2.8C27.5,32.3,31.5,34.3,32.3,35z"/>
		<path class="st0" d="M14.6,20.1c-1.9-1-3.7-2.1-5.7-3c0.4,0,0.7,0.1,1,0.3c0.6,0.3,1.2,0.6,1.8,0.9c0.9,0.5,1.9,1.1,2.8,1.7
			C14.5,20,14.6,20,14.6,20.1z"/>
		<path class="st0" d="M32.5,29.8c0.2,1.5,1,2.5,2,3.4c0.5,0.4,1.1,0.7,1.7,1.1c-0.4-0.1-0.6-0.3-0.9-0.4c-0.9-0.6-1.8-1.2-2.3-2.2
			c-0.3-0.5-0.5-1-0.6-1.6C32.4,30,32.4,29.9,32.5,29.8z"/>
		<path class="st0" d="M37.8,19.8c0.3-1.3,0.1-2.5-0.1-3.7c-0.2-0.8-0.4-1.7-0.7-2.5c0-0.1,0-0.1,0-0.2c0.1,0.2,0.2,0.4,0.3,0.7
			c0.3,1,0.6,1.9,0.8,2.9c0.1,0.8,0.2,1.5,0,2.3C38,19.4,38,19.6,37.8,19.8z"/>
		<path class="st0" d="M40.4,5.5c-0.6,2.6-0.7,5.1-0.5,7.7c-0.2-1.1-0.1-2.1-0.2-3.2c0-0.4,0-0.8,0-1.2C39.8,7.7,40,6.6,40.4,5.5z"
			/>
		<path class="st0" d="M7.3,25c2.4,0.6,4.4,1.8,6.4,3.1c-0.1,0-0.2-0.1-0.4-0.1c-1.2-0.7-2.4-1.5-3.7-2.1C8.9,25.6,8.1,25.3,7.3,25
			C7.3,25.1,7.3,25,7.3,25z"/>
		<path class="st0" d="M23.1,34c-1.3,0-4.6-2.3-5.6-3.8c0.5,0.5,1.1,1.1,1.7,1.5c0.6,0.5,1.2,0.9,1.9,1.3
			C21.7,33.4,22.4,33.7,23.1,34z"/>
		<path class="st0" d="M44.5,38.8c-1.4-1.1-2.8-4.3-2.6-6C42,34,42.3,35,42.8,36C43.2,37.1,43.8,38,44.5,38.8z"/>
		<path class="st0" d="M38.9,34.8c-2.3-0.4-4.1-1.6-5.5-3.4c0.1,0.1,0.2,0.2,0.2,0.2c0.6,0.7,1.4,1.3,2.2,1.9
			c0.6,0.4,1.2,0.7,1.9,0.9C38.2,34.5,38.6,34.6,38.9,34.8z"/>
		<path class="st0" d="M28,9.7c0.3,0.1,0.4,0.2,0.6,0.4c0.9,0.8,1.6,1.7,2.1,2.8c0.3,0.5,0.5,1,0.7,1.6c0,0.1,0,0.1,0,0.2
			C30.6,12.8,29.5,11.1,28,9.7z"/>
		<path class="st0" d="M32.1,33.9c-0.5-0.7-0.9-1.5-1.1-2.4c-0.2-0.7-0.2-1.4,0-2.1c0.1-0.4,0.3-0.8,0.6-1.2c0,0.1,0,0.2-0.1,0.3
			c0,0.1-0.1,0.2-0.1,0.3c-0.4,0.7-0.4,1.5-0.3,2.2c0.1,0.8,0.4,1.6,0.9,2.3C32,33.6,32.1,33.8,32.1,33.9
			C32.2,33.9,32.2,33.9,32.1,33.9z"/>
		<path class="st0" d="M39.9,33.3c-1.8-1-3.4-2.3-4.4-4.2c0.6,0.8,1.3,1.6,2,2.3C38.3,32.1,39.1,32.6,39.9,33.3z"/>
		<path class="st0" d="M41.7,37.6c-0.4-0.2-0.9-0.5-1.3-0.7c-0.8-0.4-1.7-0.8-2.6-1c-0.2,0-0.4,0-0.6,0c-0.2,0-0.4,0-0.6,0
			c0.1-0.2,0.3-0.1,0.4-0.2c0.6,0,1.1,0.1,1.7,0.2C39.6,36.2,41.2,37,41.7,37.6z"/>
		<path class="st0" d="M47.6,43.3c-1.4-0.3-4-2.1-4.4-3.1c0.4,0.4,0.7,0.7,1,0.9c0.3,0.3,0.7,0.6,1.1,0.8c0.4,0.3,0.7,0.5,1.1,0.7
			C46.8,42.9,47.2,43.1,47.6,43.3z"/>
		<path class="st0" d="M36.6,28.6c1.5,0.9,3.4,3.2,4.2,4.9c-0.6-0.9-1.2-1.8-1.9-2.6C38.1,30.1,37.3,29.3,36.6,28.6z"/>
		<path class="st0" d="M30.9,32.5c-0.6-0.6-1.2-1.2-1.9-1.7c-0.7-0.5-1.4-1-2.2-1.5C27.8,29.5,30.2,31.4,30.9,32.5z"/>
		<path class="st0" d="M30.1,24.8c-1.6-1.6-3.2-2.9-5.2-3.7c0.2-0.1,0.4,0.1,0.6,0.1c1.1,0.4,2.1,1.1,3,1.8c0.5,0.4,1,0.9,1.4,1.3
			C30,24.5,30.1,24.6,30.1,24.8z"/>
		<path class="st0" d="M21.5,19.8c-1.6-0.8-3.2-1.8-5-2.3c0.1-0.1,0.2-0.1,0.3-0.1c0.8,0.2,1.6,0.5,2.4,0.9
			C19.9,18.7,20.7,19.2,21.5,19.8z"/>
		<path class="st0" d="M49,36.8c1.6-0.8,3.1-1.8,4.2-3.2C52.2,35.2,50.7,36.1,49,36.8z"/>
		<path class="st0" d="M21.4,36.6c0.8,0.4,1.6,0.8,2.4,1.2c0.8,0.4,1.6,0.7,2.5,1C24.4,38.4,22.8,37.7,21.4,36.6
			C21.3,36.7,21.4,36.7,21.4,36.6z"/>
		<path class="st0" d="M39.2,35.8c0.3,0,0.5,0.1,0.7,0.1c1,0.4,1.8,0.9,2.6,1.6c0.4,0.3,0.8,0.6,1,1.1c-0.2-0.2-0.4-0.3-0.6-0.5
			c-0.9-0.8-1.9-1.5-3-2C39.8,36,39.5,35.9,39.2,35.8z"/>
		<path class="st0" d="M33,19.4c0.7,1.7,1.3,3.4,2.4,4.8c-0.2,0.1-0.2,0-0.2-0.1c-0.5-0.5-0.8-1.2-1.1-1.8c-0.4-0.9-0.8-1.7-1-2.6
			C33,19.6,33,19.5,33,19.4z"/>
		<path class="st0" d="M29.7,38.3c-1.4-0.7-2.7-1.5-4.1-2.1C27.1,36.6,28.4,37.4,29.7,38.3z"/>
		<path class="st0" d="M11,25.8c-1.5-0.4-2.9-1.1-4.4-1.1c0-0.2,0.1-0.1,0.2-0.1c0.6,0,1.2,0.1,1.7,0.2C9.4,25,10.2,25.3,11,25.8z"
			/>
		<path class="st0" d="M63.4,11.5c-0.6,0.5-1.1,1.1-1.7,1.6c-0.6,0.5-1,1.1-1.6,1.8C60.4,14,62.5,11.9,63.4,11.5z"/>
		<path class="st0" d="M47.3,18.9c-0.5,1.8-0.9,3.5-0.9,5.4C46.2,22.4,46.5,20.6,47.3,18.9z"/>
		<path class="st0" d="M32.2,35.4c-1.5-0.8-3.1-1.5-4.6-2.2C29.2,33.8,30.8,34.5,32.2,35.4z"/>
		<path class="st0" d="M16.1,20.6c-1.2-0.8-2.4-1.6-3.8-2.2C13,18.4,15.2,19.6,16.1,20.6z"/>
		<path class="st0" d="M35.7,41c-1.5-0.1-2.9-0.4-4.4-0.3C32.8,40.4,34.3,40.6,35.7,41z"/>
		<path class="st0" d="M39.3,26c-0.5-0.6-0.8-2.1-0.6-3.8c0,0.6,0.1,1.3,0.1,1.9C39,24.8,39.2,25.4,39.3,26z"/>
		<path class="st0" d="M35.3,34.4c-1-0.3-2.6-1.8-2.9-2.6c0.4,0.5,0.8,1,1.3,1.4C34.2,33.6,34.7,34,35.3,34.4z"/>
		<path class="st0" d="M16.5,31.8c-1.2-0.8-2.3-1.6-3.5-2.4C14.3,30.1,15.5,30.9,16.5,31.8z"/>
		<path class="st0" d="M32.5,28.2c-0.7,0.7-1,1.6-1.1,2.6C31.1,30.2,31.8,28.5,32.5,28.2z"/>
		<path class="st0" d="M41.7,8.2c0-1.1,0-2.2,0.2-3.4C42,5,42,5,41.9,5.6c0,0.3,0,0.6,0,0.9c0,0.3-0.1,0.5-0.1,0.8
			C41.8,7.6,41.7,7.9,41.7,8.2z"/>
		<path class="st0" d="M20.4,19.7c-1-0.5-2-1.2-3.1-1.6C18.5,18.4,19.5,19,20.4,19.7z"/>
		<path class="st0" d="M34.1,26.4c0.4-0.7,1.4-0.9,2.5-0.6c-0.3,0-0.6,0-0.8,0c-0.5,0-1,0.1-1.5,0.5C34.3,26.3,34.2,26.3,34.1,26.4z
			"/>
		<path class="st0" d="M33.5,28.3c0.2,0.4,0.3,0.8,0.5,1.2c0.2,0.4,0.6,0.6,0.9,1C34.2,30.4,33.4,29.1,33.5,28.3z"/>
		<path class="st0" d="M48.4,37.8c-0.9,0.3-2.4,0.6-3,0.6c0.3-0.2,0.7-0.2,1-0.3c0.3-0.1,0.6-0.1,1-0.2
			C47.6,37.9,47.9,37.8,48.4,37.8z"/>
		<path class="st0" d="M22.7,7.6c0.1,0.1,0.1,0.1,0.2,0.2c0.6,0.7,1.2,1.4,1.8,2.2C24.2,9.6,22.9,8,22.7,7.6z"/>
		<path class="st0" d="M27.3,36.2c0.7,0.1,1.5,0.6,1.9,1c-0.3-0.2-0.6-0.4-0.9-0.5C28,36.5,27.6,36.4,27.3,36.2z"/>
		<path class="st0" d="M29.9,36.3c-0.7-0.2-1.3-0.5-2-0.6C28.3,35.6,29.2,35.9,29.9,36.3z"/>
		<path class="st0" d="M32.6,26.8c-0.6-0.3-1.1-0.3-1.7-0.1c0.2-0.3,0.4-0.3,0.9-0.3C32.1,26.4,32.3,26.5,32.6,26.8z"/>
		<path class="st0" d="M33.2,27c-0.1-0.7-0.5-1-1.1-1.2C32.8,25.7,33.4,26.3,33.2,27z"/>
		<path class="st0" d="M32.5,26.3c-0.5-0.2-0.9-0.1-1.4,0c0.2-0.2,0.4-0.3,0.7-0.3C32.1,26,32.3,26.1,32.5,26.3z"/>
	</g>
</g>
</svg>
