<?xml version="1.0" encoding="utf-8"?>
<!-- Generator: Adobe Illustrator 27.6.0, SVG Export Plug-In . SVG Version: 6.00 Build 0)  -->
<svg version="1.1" id="Layer_1" xmlns="http://www.w3.org/2000/svg" xmlns:xlink="http://www.w3.org/1999/xlink" x="0px" y="0px"
	 viewBox="0 0 348 267" style="enable-background:new 0 0 348 267;" xml:space="preserve">
<style type="text/css">
	.st0{fill:#FCD2C5;}
</style>
<g>
	<g>
		<path class="st0" d="M226.3,31.6c-0.3,0.8-0.9,1.4-1.4,2.1c-6.2,7.4-13.6,13.4-22.3,17.7c-10,5-20.6,6.3-31.6,5.2
			c-7.3-0.8-14.5-2-21.7-2.6c-5.5-0.5-11-0.6-16.4,0.2c-8.4,1.3-16,4.5-22.8,9.7c-5.4,4.2-10.2,8.9-14.7,14
			c-7.2,8.1-14,16.4-20.3,25.2c-1.8,2.5-3.3,5.1-4.8,7.7s-2.9,5.2-4.5,7.7c-0.5,0.8-0.9,1.7-1,2.7c0.6,0.1,0.9-0.2,1.2-0.5
			c3.7-2.9,7-6.1,9.3-10.2c2.1-3.8,4.4-7.6,7.1-11.1c4.3-5.6,9.6-10,15.8-13.4c5.4-3,11.3-4.7,17.3-5.7c9-1.4,18.1-1.6,27.2-1.4
			c7.4,0.2,14.7,0.8,22,0.7c5.5-0.1,10.9-0.8,16.1-3c2.6-1.1,4.9-2.5,7.3-4c8.7-5.6,16.9-11.9,24.1-19.5c4.6-4.9,8.7-10.1,12.2-15.8
			c1.1-1.8,2-3.7,3.2-5.4c0.2,0.1,0.4,0.2,0.6,0.2c-0.7,2.2-2.1,4.1-3.3,6c-3.6,5.7-7.8,11.1-12.5,16c-6.4,6.7-13.7,12.4-21.4,17.6
			c-13.5,9.1-28.4,14.9-44.3,17.9c-8.2,1.6-16.5,2.9-24.7,4.7c-8.2,1.7-16.3,3.9-24.1,7c-10.1,4-19.4,9.5-27.5,16.9
			c-0.8,0.7-1.6,1.4-2.4,2c-0.6,0.5-1.2,1-1.9,1.4c-0.6,0.4-1.2,0.9-1.8,0.3c-0.6-0.5-0.4-1.3-0.2-1.9c0.2-0.6,0.5-1.3,0.8-1.9
			c1.3-2.1,2.5-4.3,3.7-6.5c2.3-4.1,4.8-8.2,7.6-12c6.7-8.9,13.7-17.5,21.2-25.7c6.5-7.1,13.9-12.9,22.2-17.7
			c2.8-1.6,5.6-3.1,8.5-4.5c8-3.7,16.5-5.6,25.2-6.6c7.1-0.8,14.3-0.8,21.4-0.9c6.5-0.1,13.1,0.1,19.6-0.4
			c5.3-0.4,10.6-1.4,15.6-3.3c5.4-2.1,10.5-4.8,14.7-8.8c0.3-0.2,0.6-0.5,0.8-0.7C225.7,31.4,226,31.5,226.3,31.6z M74.8,113
			c0,0.1,0.1,0.1,0.1,0.2c0.3-0.2,0.7-0.5,1-0.7c5.9-4.4,12.3-8,19-10.9c8.6-3.7,17.7-6.1,26.8-8.1c7.5-1.6,15-2.9,22.5-4.2
			c9.7-1.7,19.1-4.5,28.2-8.4c1.1-0.5,2.1-1,3.2-1.5c-0.1-0.1-0.2-0.2-0.2-0.2c-0.3,0-0.6,0.1-0.9,0.1c-8.3,1.4-16.6,2.2-24.9,2.4
			c-6.1,0.1-12.2-0.3-18.3-0.6c-7.9-0.3-15.6,0.3-23.3,2.3C97.9,86,89.7,91.6,83.2,99.8c-2.2,2.8-4,5.8-5.9,8.9
			C76.5,110.1,75.7,111.6,74.8,113z M221.3,36.2l-0.1-0.1c-0.5,0.3-0.9,0.5-1.4,0.8c-5.3,3.3-10.9,5.7-17,7c-4.7,1-9.5,1.4-14.3,1.5
			c-8.2,0.2-16.4,0-24.6,0.3c-8.5,0.3-17,1.2-25.2,3.5c-4.6,1.3-9,3.1-13.3,5.2c-0.3,0.2-0.8,0.3-0.9,0.8c0.3-0.1,0.5-0.1,0.7-0.2
			c5.8-2,11.8-2.5,17.9-2.4c6.3,0.1,12.5,1,18.7,1.7c5,0.6,10,1.5,15.1,1.5c6.8,0.1,13.5-0.7,19.9-3.2c9.1-3.5,17.1-8.7,23.9-15.7
			C220.9,36.8,221.3,36.6,221.3,36.2z"/>
	</g>
	<g>
		<path class="st0" d="M111.2,80.5c4-2.2,8-4.3,12.2-6.2c-1.3-1-5.2-2.5-9.4-3.9c-3.2-1.1-6.6-1.5-10-2.1c0.4-0.6,0.9-0.4,1.4-0.4
			c2.4,0.2,4.7,0.7,7.1,1.2c2.1,0.5,4.1,1.3,6.1,2c1.9,0.7,3.8,1.7,5.7,2.7c0.5-0.1,1-0.3,1.6-0.7c-1.9-1.3-4-2.2-6.1-3.1
			s-4.2-1.8-6.4-2.4c-2.2-0.6-4.5-0.7-6.7-1.4c1.2-0.3,2.4-0.3,3.5-0.1c3.8,0.6,7.4,1.7,10.8,3.5c1.6,0.8,3.2,1.4,4.7,2.5
			c0.3,0.2,0.7,0.4,1.1,0.5c0.9-0.4,1.8-0.9,2.7-1.3c-3.1-1.6-6.3-3.4-9.6-4.7c-3.4-1.3-6.8-2.1-10.4-2.7c0.4-0.7,0.8-0.5,1.2-0.5
			c2.6,0.3,5.2,0.8,7.6,1.7c2,0.8,3.9,1.6,5.8,2.4c2.2,1,4.2,2.2,6.4,3.6c4.7-1.7,9.5-3.1,14.6-4.5c-1.7-1.5-3.5-2.5-5.2-3.5
			c-1.8-1.1-3.9-1.8-5.8-2.7c-1.9-0.9-3.9-1.6-5.9-2s-4.1-0.6-6.1-1c2.7-0.2,5.4,0.1,8,0.7c2.4,0.5,4.6,1.5,6.8,2.5
			c3,1.3,5.9,2.9,8.4,5c0.5,0.4,1,0.7,1.7,0.5c4.1-1,8.1-1.9,12.2-2.8c0.2,0,0.3-0.1,0.5-0.1c-2.5-3-7.3-6.5-14-9.9
			c3.1,0.4,11.5,5.4,14.9,9.8c5.2-1,10.6-1.8,15.9-3.3c-2.1-1.8-4.6-2.3-6.6-3.9c2,0.7,3.9,1.4,5.7,2.4c0.3,0.2,0.6,0.4,0.9,0.6
			c0.8,0.5,1.6,0.6,2.5,0.3c3.8-1.2,7.7-2.2,11.4-3.9c3.6-1.6,7.3-3,11-4.6c0.3-0.1,0.5-0.3,1.1-0.2c-1.7,0.9-3.3,1.8-4.9,2.6
			c-1.1,0.6-2.2,1.1-3.4,1.6c-0.6,0.3-1,0.7-1.3,1.3c-0.5,1.2-0.9,2.3-1.5,3.5c-2.5,5.5-5.4,10.7-9.1,15.4c-0.5,0.6-1,1.2-1.6,1.8
			c-0.1,0.1-0.3,0.3-0.7,0.2c2.4-3.3,4.8-6.6,6.8-10.1c2.1-3.5,3.6-7.3,5.4-11c-4.5,1.7-9,3.2-13.7,4.5c-2.6,5.6-5.7,11-9.8,15.7
			c-0.8,0.9-1.7,1.9-2.6,2.7c-0.2,0.1-0.3,0.3-0.8,0.2c2.4-2.8,4.7-5.6,6.7-8.6s3.9-6.1,5.4-9.8c-5.6,1.6-11.2,2.4-16.6,3.5
			c-2.6,6.5-6.8,11.8-11.7,16.8c0-0.7,0.2-1,0.5-1.3c1.9-2.3,3.9-4.6,5.6-7.1c1.8-2.5,3.4-5.1,4.6-8.1c-0.8-0.1-1.4,0.2-2.1,0.3
			c-2.9,5.9-7,11-12.2,15.1c4.2-4.5,8.3-9,11-14.6c-0.5-0.3-0.8-0.1-1.2,0c-1.7,0.4-3.5,0.9-5.2,1.2c-1.1,0.2-1.8,0.8-2.3,1.7
			c-0.9,1.7-2,3.3-3.1,4.9c-1.5,2.1-3,4.1-4.8,5.9c-0.3,0.3-0.7,0.7-1.2,0.8c1.5-2,3.1-3.9,4.5-6s2.8-4.1,4.1-6.2
			c-0.2-0.4-0.5-0.3-0.7-0.2c-4.6,1.3-9.2,2.5-13.7,4.1c-1.1,0.4-1.8,1.1-2.4,2.1c-1.1,2.2-2.6,4.2-4.4,5.9
			c-0.3,0.3-0.5,0.7-1.2,0.7c1.8-2.4,3.8-4.6,5-7.3c-0.6-0.1-1,0.2-1.4,0.4c-6,2.4-11.8,5.2-17.4,8.4c-0.7,0.4-1.4,0.8-2.3,0.3
			c0.2-0.5,0.9-0.5,1.1-1.1c-2.6-0.7-5.3-1.1-7.9-1.6s-5.3-0.3-8.1-0.4c0.5-0.7,1.1-0.6,1.6-0.7c2.4-0.3,4.7-0.1,7,0.3
			C105.6,79,108.5,79.5,111.2,80.5z"/>
		<path class="st0" d="M75.1,107.9c-2.2,1.3-3.9,2.9-6,4.3c0.3-1,0.9-1.4,1.4-1.8c1.7-1.5,3.5-2.8,5.5-3.9c1.6-0.9,3-1.9,4.5-3.3
			c-0.7,1.5-1.6,2.6-2.6,3.6c-3.7,3.7-7.3,7.6-10.8,11.5c-0.2,0.2-0.4,0.4-0.7,0.6c0.2-0.9,0.8-1.4,1.2-2c2.1-2.5,4.3-4.9,6.5-7.4
			C74.5,109.1,75,108.8,75.1,107.9z"/>
		<path class="st0" d="M194.3,69.1c0.2-1.4,1.2-2.4,1.8-3.6c0.5-1.1,1.3-2.2,1.9-3.2c1.7-3.1,3-6.4,4.4-9.7c0.3-0.7,0.7-1.3,0.7-2.1
			c0-0.2,0.1-0.3,0.3-0.3c0.1-0.1,0.3-0.1,0.6-0.2C201.7,56.9,198.5,63.3,194.3,69.1z"/>
		<path class="st0" d="M207.8,47.9c0,3.2-5.7,14.8-8.6,17.5c0.3-1.4,1.2-2.3,1.8-3.5s1.5-2.3,2-3.5c1.3-3.2,3.3-6.2,4.1-9.6
			C207.1,48.4,207.2,48,207.8,47.9z"/>
		<path class="st0" d="M212.9,53.6c0.6-1.7,1.1-3.5,2.2-5c0.2-0.3,0.3-0.6,0.4-0.8c1.4-3,2.9-5.9,4.1-8.9c0.1-0.2,0.2-0.5,0.4-0.8
			c-0.4,3.1-1.7,5.7-3,8.3C215.9,48.8,214.6,51.3,212.9,53.6z"/>
		<path class="st0" d="M96.4,87.6c-4.7,1.5-9.2,3-13.4,5c-0.4-0.6,0.1-0.7,0.3-0.8c2-1.3,4.2-2.1,6.4-2.9c1.8-0.6,3.7-1.2,5.6-1.6
			C95.6,87.3,95.9,87.1,96.4,87.6z"/>
		<path class="st0" d="M76.5,100.6c2.2-2.1,8-4.9,9.9-4.7C83,97.3,79.9,99.2,76.5,100.6z"/>
		<path class="st0" d="M78.5,98c2.9-2.4,6.3-3.8,10-4.7C85.2,94.8,81.8,96.3,78.5,98z"/>
	</g>
</g>
<g>
	<g>
		<path class="st0" d="M131.5,129.9c0.3,0.3,0.5,0.5,0.8,0.8c3.9,4.4,8.7,7.5,13.8,10.1c4.8,2.4,9.9,3.8,15.2,4.7
			c6.4,1.1,13,1.5,19.5,2.2c7.1,0.8,14.2,1.4,21.3,2.8c8.6,1.8,16.9,4.5,24.5,8.9c2.8,1.6,5.4,3.4,8,5.2c7.8,5.6,14.7,12,20.5,19.7
			c6.7,8.9,13,18,18.8,27.5c2.5,4.1,4.6,8.3,6.5,12.6c1,2.3,2,4.6,3.1,6.8c0.3,0.6,0.5,1.3,0.6,1.9c0.2,0.7,0.3,1.4-0.4,1.9
			c-0.7,0.5-1.3,0-1.8-0.5c-0.6-0.5-1.2-1-1.8-1.6c-0.7-0.7-1.5-1.5-2.2-2.3c-7.4-8.1-16.2-14.4-25.9-19.3
			c-7.5-3.8-15.3-6.7-23.3-9.2s-16.1-4.6-24.1-6.9c-15.6-4.5-29.9-11.7-42.5-21.9c-7.2-5.8-13.9-12.2-19.7-19.5
			c-4.3-5.3-7.9-11-11-17.1c-1-2-2.2-4.1-2.7-6.3c0.2-0.1,0.4-0.1,0.6-0.2c1,1.8,1.7,3.8,2.7,5.7c3,6,6.6,11.6,10.8,16.8
			c6.4,8.2,14,15.2,22.2,21.6c2.2,1.7,4.4,3.3,6.9,4.6c4.9,2.6,10.3,3.9,15.7,4.4c7.3,0.8,14.7,0.8,22,1.3
			c9.1,0.6,18.1,1.6,26.9,3.9c6,1.5,11.6,3.8,16.8,7.2c5.8,3.9,10.7,8.8,14.5,14.8c2.3,3.7,4.3,7.7,6,11.7c1.9,4.4,4.9,7.8,8.3,11.1
			c0.3,0.3,0.6,0.6,1.1,0.6c0-1-0.3-1.9-0.8-2.8c-1.4-2.6-2.5-5.4-3.7-8.1c-1.3-2.7-2.5-5.5-4.1-8.1c-5.5-9.3-11.5-18.3-17.9-27
			c-4.1-5.5-8.4-10.6-13.4-15.3c-6.3-5.9-13.6-9.7-21.8-11.8c-5.3-1.4-10.8-1.7-16.3-1.7c-7.3-0.1-14.6,0.5-21.9,0.6
			c-11,0.2-21.4-2.2-31-8c-8.3-5.1-15.1-11.7-20.6-19.6c-0.5-0.7-1-1.3-1.2-2.2C130.9,130.1,131.2,130,131.5,129.9z M271.9,220.6
			c-1.5-3.2-3.1-6.4-5-9.4c-5.7-8.8-13.4-15.1-23.3-18.6c-7.5-2.6-15.1-3.9-23-4.4c-6.1-0.3-12.2-0.5-18.3-1.1
			c-8.3-0.9-16.5-2.4-24.6-4.6c-0.3-0.1-0.6-0.1-0.9-0.2c0,0-0.1,0.1-0.2,0.2c1,0.6,2,1.2,3.1,1.8c8.7,4.7,17.8,8.3,27.3,10.9
			c7.4,2,14.7,4,22,6.3c8.9,2.8,17.7,6,26,10.5c6.5,3.5,12.5,7.6,18,12.5c0.3,0.3,0.6,0.5,1,0.8c0-0.1,0.1-0.1,0.1-0.2
			C273.3,223.6,272.7,222.1,271.9,220.6z M135.7,136.1c6.1,7.7,13.6,13.6,22.3,17.9c6.1,3,12.7,4.4,19.5,5c5.1,0.4,10.1,0,15.2-0.1
			c6.3-0.2,12.5-0.5,18.8,0c6.1,0.4,12,1.5,17.6,4c0.2,0.1,0.4,0.1,0.7,0.2c0-0.6-0.5-0.7-0.8-0.9c-4-2.5-8.3-4.7-12.7-6.4
			c-8-3.1-16.3-4.8-24.8-5.8c-8.1-1-16.3-1.6-24.5-2.6c-4.8-0.6-9.5-1.4-14.1-2.8c-6-1.8-11.4-4.8-16.3-8.5
			c-0.4-0.3-0.9-0.6-1.3-0.9h-0.1C135.1,135.7,135.5,135.9,135.7,136.1z"/>
	</g>
	<g>
		<path class="st0" d="M240.8,189.5c-3.7-2.6-7.6-5-11.6-7.3c1.4-0.8,5.4-2,9.7-3c3.3-0.8,6.7-0.9,10.1-1.1
			c-0.4-0.6-0.9-0.5-1.3-0.5c-2.4,0-4.8,0.2-7.2,0.5c-2.1,0.3-4.2,0.9-6.2,1.5c-2,0.5-3.9,1.4-6,2.1c-0.5-0.1-1-0.4-1.5-0.8
			c2.1-1.1,4.2-1.8,6.3-2.5c2.2-0.7,4.4-1.4,6.6-1.8c2.2-0.4,4.5-0.3,6.8-0.8c-1.2-0.4-2.3-0.5-3.5-0.4c-3.8,0.3-7.6,1.1-11.1,2.5
			c-1.6,0.7-3.4,1.1-4.9,2.1c-0.3,0.2-0.8,0.3-1.1,0.4c-0.9-0.5-1.7-1-2.6-1.5c3.3-1.4,6.6-2.8,10-3.8c3.5-1,7-1.5,10.6-1.7
			c-0.3-0.7-0.8-0.6-1.2-0.6c-2.6,0.1-5.2,0.3-7.7,1c-2,0.6-4,1.2-6,1.9c-2.3,0.8-4.4,1.8-6.7,3c-4.5-2.2-9.2-4-14.1-5.8
			c1.8-1.4,3.7-2.2,5.5-3c1.9-0.9,4-1.5,6-2.1c2-0.7,4-1.2,6.1-1.4s4.1-0.2,6.2-0.5c-2.7-0.4-5.4-0.4-8.1,0c-2.4,0.3-4.7,1.1-7,1.8
			c-3.1,1.1-6.1,2.4-8.9,4.2c-0.6,0.4-1,0.6-1.7,0.3c-4-1.3-7.9-2.6-11.9-3.9c-0.1,0-0.3-0.1-0.5-0.2c2.8-2.7,7.9-5.8,14.8-8.6
			c-3.1,0.1-11.9,4.3-15.8,8.4c-5.1-1.5-10.4-2.7-15.6-4.7c2.2-1.6,4.8-1.9,6.9-3.3c-2,0.5-4,1-5.9,1.9c-0.3,0.2-0.7,0.3-1,0.5
			c-0.8,0.5-1.6,0.4-2.5,0c-3.7-1.5-7.5-2.9-11-4.9c-3.5-1.9-7-3.7-10.5-5.6c-0.2-0.1-0.5-0.4-1-0.3c1.7,1.1,3.1,2.1,4.7,3.1
			c1.1,0.7,2.1,1.3,3.2,1.9c0.6,0.3,1,0.7,1.1,1.4c0.3,1.2,0.7,2.4,1.1,3.6c2,5.7,4.4,11.1,7.7,16.2c0.4,0.7,0.9,1.3,1.4,1.9
			c0.1,0.1,0.3,0.3,0.7,0.3c-2.1-3.5-4.1-7-5.9-10.6c-1.7-3.7-2.9-7.6-4.3-11.5c4.3,2.1,8.7,4,13.2,5.8c2.1,5.8,4.7,11.5,8.3,16.5
			c0.7,1,1.5,2,2.3,2.9c0.1,0.2,0.3,0.3,0.7,0.3c-2.1-3-4.2-6-5.9-9.2s-3.3-6.5-4.5-10.2c5.5,2.1,10.9,3.4,16.2,5
			c2,6.7,5.6,12.4,10.1,17.8c0.1-0.7-0.1-1-0.4-1.3c-1.7-2.5-3.4-5-4.9-7.6c-1.5-2.7-3-5.4-3.8-8.5c0.8,0,1.4,0.3,2.1,0.5
			c2.3,6.2,5.9,11.6,10.8,16.2c-3.7-4.8-7.5-9.7-9.6-15.5c0.5-0.3,0.8,0,1.2,0.1c1.7,0.5,3.4,1.2,5.1,1.6c1.1,0.3,1.7,0.9,2.1,1.9
			c0.8,1.8,1.7,3.5,2.7,5.1c1.3,2.2,2.6,4.4,4.3,6.4c0.3,0.4,0.6,0.7,1.1,0.9c-1.3-2.2-2.7-4.2-3.9-6.4s-2.4-4.4-3.6-6.5
			c0.3-0.4,0.5-0.2,0.7-0.1c4.5,1.7,8.9,3.4,13.3,5.3c1.1,0.5,1.7,1.2,2.2,2.3c0.9,2.3,2.2,4.4,3.8,6.2c0.3,0.3,0.5,0.7,1.1,0.8
			c-1.6-2.6-3.3-4.9-4.3-7.8c0.6-0.1,0.9,0.3,1.3,0.5c5.7,2.9,11.3,6.2,16.5,9.9c0.7,0.5,1.3,0.9,2.2,0.6c-0.2-0.5-0.9-0.6-1-1.2
			c2.7-0.5,5.3-0.7,8-0.9s5.3,0.2,8.1,0.4c-0.5-0.7-1.1-0.7-1.6-0.8c-2.3-0.5-4.7-0.5-7-0.3C246.4,188.4,243.6,188.7,240.8,189.5z"
			/>
		<path class="st0" d="M274.2,220c2.1,1.5,3.6,3.2,5.5,4.9c-0.2-1-0.7-1.4-1.2-1.9c-1.5-1.7-3.2-3.1-5.1-4.4c-1.5-1-2.8-2.2-4.1-3.7
			c0.6,1.6,1.4,2.7,2.3,3.8c3.4,4,6.6,8.2,9.7,12.5c0.2,0.2,0.3,0.4,0.6,0.7c-0.1-0.9-0.6-1.5-1.1-2.1c-1.9-2.7-3.8-5.3-5.8-8
			C274.7,221.3,274.2,220.9,274.2,220z"/>
		<path class="st0" d="M159.1,170.4c-0.1-1.4-1-2.5-1.4-3.7s-1.1-2.3-1.6-3.4c-1.4-3.2-2.4-6.7-3.5-10c-0.2-0.7-0.6-1.4-0.5-2.1
			c0-0.2-0.1-0.3-0.2-0.4c-0.1-0.1-0.3-0.1-0.6-0.3C152.8,157.7,155.4,164.3,159.1,170.4z"/>
		<path class="st0" d="M147.6,148.1c-0.3,3.2,4.3,15.3,7,18.2c-0.2-1.4-1-2.4-1.5-3.6c-0.5-1.3-1.2-2.4-1.6-3.7
			c-1-3.3-2.7-6.5-3.3-9.9C148.2,148.7,148.1,148.2,147.6,148.1z"/>
		<path class="st0" d="M141.9,153.3c-0.5-1.8-0.8-3.6-1.7-5.2c-0.2-0.3-0.2-0.6-0.3-0.9c-1.1-3.1-2.4-6.1-3.3-9.3
			c-0.1-0.2-0.2-0.5-0.3-0.9c0.1,3.1,1.2,5.8,2.2,8.5C139.4,148.3,140.5,150.9,141.9,153.3z"/>
		<path class="st0" d="M254.9,197.9c4.5,1.9,8.8,3.8,12.9,6.3c0.4-0.6-0.1-0.7-0.3-0.8c-1.9-1.5-4-2.5-6.1-3.4
			c-1.8-0.8-3.5-1.6-5.4-2.1C255.7,197.7,255.4,197.4,254.9,197.9z"/>
		<path class="st0" d="M273.4,212.6c-2-2.3-7.5-5.6-9.4-5.6C267.3,208.8,270.2,210.9,273.4,212.6z"/>
		<path class="st0" d="M271.7,209.8c-2.7-2.7-6-4.4-9.5-5.6C265.4,206.1,268.6,207.9,271.7,209.8z"/>
	</g>
</g>
</svg>
